<svg width="80" height="80" viewBox="0 0 80 80" fill="none" xmlns="http://www.w3.org/2000/svg">
<path d="M26.9234 38.1482C22.4342 37.5226 18.8936 35.3464 16.6011 31.2078C14.8772 28.0943 14.4469 24.7185 15.0889 21.2145C16.3333 14.4255 22.0078 9.79361 28.743 10.0065C35.5275 10.2214 40.8879 15.2196 41.7136 22.169C42.1796 26.0896 41.35 29.7005 39.0034 32.8473C36.6646 35.984 33.5184 37.6397 29.7679 38.1794C30.2649 38.2117 30.7619 38.2369 31.2569 38.2793C31.7548 38.3227 32.2518 38.3711 32.7468 38.4387C38.7211 39.2499 44.1858 41.3494 48.8036 45.4981C51.9111 48.2898 54.132 51.6888 54.9983 55.9394C55.8666 60.197 55.0312 64.1539 52.9543 67.8577C52.4032 68.8403 51.7284 69.7484 51.0748 70.6635C50.9471 70.842 50.6571 70.9883 50.4415 70.9883C35.6987 71.0035 20.9559 71.0024 6.21406 70.9934C6.03035 70.9934 5.77993 70.9157 5.67165 70.7785C2.97118 67.3522 1.28594 63.5002 1.33911 58.9853C1.38939 54.7145 2.97215 51.0441 5.61073 47.8479C8.46299 44.3913 12.0578 42.0547 16.108 40.4404C19.5849 39.0542 23.1932 38.3368 26.9234 38.1482Z" fill="#FFC368"/>
<path d="M40.6738 35.8408C41.1689 35.2707 41.6929 34.7007 42.1802 34.0994C42.7623 33.382 43.3279 32.6496 43.8684 31.8989C44.0434 31.6548 44.2116 31.5569 44.4997 31.5569C55.7454 31.564 66.99 31.5619 78.2357 31.564C78.3613 31.564 78.488 31.5791 78.6456 31.5882C78.6456 33.4486 78.6456 35.2899 78.6456 37.2088C78.4822 37.2088 78.313 37.2088 78.1428 37.2088C67.2356 37.2088 56.3293 37.2098 45.4221 37.2038C45.1533 37.2038 44.8758 37.1594 44.6177 37.0817C43.4265 36.7246 42.2402 36.3482 41.0528 35.977C40.8875 35.9245 40.726 35.8589 40.6738 35.8408Z" fill="#FFC368"/>
<path d="M78.6606 21.2226C78.6606 23.1325 78.6606 24.9616 78.6606 26.8281C67.6026 26.8281 56.5629 26.8281 45.499 26.8281C45.6769 25.9917 45.8819 25.1836 46.0134 24.3623C46.1507 23.5027 46.2532 22.632 46.2977 21.7623C46.3209 21.3093 46.462 21.2135 46.8691 21.2135C54.6678 21.2256 62.4656 21.2226 70.2644 21.2226C72.8585 21.2226 75.4526 21.2226 78.0467 21.2226C78.2371 21.2226 78.4276 21.2226 78.6606 21.2226Z" fill="#FFC368"/>
<path d="M78.6397 46.5948C78.4337 46.5948 78.2732 46.5948 78.1127 46.5948C70.8477 46.5948 63.5826 46.5917 56.3176 46.6028C55.9405 46.6038 55.7104 46.4949 55.4938 46.1579C54.3268 44.3409 53.1076 42.5652 51.5123 41.1143C51.4929 41.0962 51.492 41.0558 51.4688 40.9852C60.5225 40.9852 69.5617 40.9852 78.6397 40.9852C78.6397 42.8325 78.6397 44.6859 78.6397 46.5948Z" fill="#FFC368"/>
<path d="M59.4628 56.8746C59.3197 55.9181 59.2336 54.9607 59.0209 54.0355C58.8102 53.1154 58.4727 52.2265 58.1865 51.3084C64.9623 51.3084 71.7826 51.3084 78.6406 51.3084C78.6406 53.1537 78.6406 54.993 78.6406 56.8746C72.2486 56.8746 65.8499 56.8746 59.4628 56.8746Z" fill="#FFC368"/>
<path d="M78.6639 62.1008C78.6639 63.9985 78.6639 65.862 78.6639 67.7658C71.9519 67.7658 65.2486 67.7658 58.4902 67.7658C59.4552 66.0083 59.7452 64.0984 59.838 62.1008C66.1033 62.1008 72.358 62.1008 78.6639 62.1008Z" fill="#FFC368"/>
</svg>
