<svg width="12" height="12" viewBox="0 0 12 12" fill="none" xmlns="http://www.w3.org/2000/svg">
<path d="M5.61582 1.2001C5.8322 0.492543 6.83387 0.492543 7.05025 1.20011L7.61244 3.03847C7.77315 3.564 8.25824 3.92292 8.80779 3.92292H10.7501C11.4655 3.92292 11.7747 4.8294 11.2084 5.26661L9.53479 6.55852C9.12301 6.8764 8.95114 7.41608 9.10327 7.91354L9.71758 9.92237C9.93136 10.6214 9.12073 11.1821 8.54207 10.7354L7.09687 9.61976C6.64689 9.27239 6.01919 9.27239 5.56921 9.61976L4.12401 10.7354C3.54535 11.1821 2.73472 10.6214 2.9485 9.92237L3.56281 7.91354C3.71494 7.41608 3.54307 6.8764 3.13128 6.55852L1.45772 5.26661C0.891352 4.8294 1.20053 3.92292 1.91602 3.92292H3.85828C4.40783 3.92292 4.89293 3.564 5.05364 3.03847L5.61582 1.2001Z" fill="white" stroke="#E28264" stroke-width="0.5"/>
</svg>
