<svg width="24" height="24" viewBox="0 0 24 24" fill="none" xmlns="http://www.w3.org/2000/svg">
<path d="M8.91587 2.09957C8.99335 2.14681 9.06093 2.20912 9.11475 2.28296C9.16856 2.35679 9.20757 2.4407 9.22953 2.52988C9.25149 2.61907 9.25598 2.71179 9.24274 2.80274C9.2295 2.89369 9.1988 2.9811 9.15238 3.05996L5.65162 9.00012H18.3484L14.8462 3.05996C14.7525 2.90068 14.7248 2.71001 14.7691 2.5299C14.8135 2.34979 14.9263 2.195 15.0827 2.09957C15.2392 2.00415 15.4265 1.97591 15.6034 2.02107C15.7802 2.06623 15.9323 2.18108 16.026 2.34037L19.9516 9.00012H21.625C21.9897 9.00012 22.3394 9.14761 22.5973 9.41016C22.8551 9.67271 23 10.0288 23 10.4001V11.8001C23 12.1714 22.8551 12.5275 22.5973 12.79C22.3394 13.0526 21.9897 13.2001 21.625 13.2001V19.5C21.625 20.4283 21.2628 21.3185 20.6182 21.9749C19.9735 22.6313 19.0992 23 18.1875 23H5.8125C4.90082 23 4.02648 22.6313 3.38182 21.9749C2.73716 21.3185 2.375 20.4283 2.375 19.5V13.2001C2.01033 13.2001 1.66059 13.0526 1.40273 12.79C1.14487 12.5275 1 12.1714 1 11.8001V10.4001C1 10.0288 1.14487 9.67271 1.40273 9.41016C1.66059 9.14761 2.01033 9.00012 2.375 9.00012H4.04838L7.97125 2.34037C8.01764 2.26149 8.07885 2.19268 8.15136 2.13789C8.22388 2.08309 8.30629 2.04338 8.39388 2.02102C8.48147 1.99866 8.57254 1.99408 8.66187 2.00756C8.75119 2.02104 8.83842 2.05231 8.91587 2.09957ZM3.75 13.2001V19.5C3.75 20.057 3.9673 20.5911 4.35409 20.9849C4.74089 21.3788 5.26549 21.6 5.8125 21.6H18.1875C18.7345 21.6 19.2591 21.3788 19.6459 20.9849C20.0327 20.5911 20.25 20.057 20.25 19.5V13.2001H3.75ZM2.375 10.4001V11.8001H21.625V10.4001H2.375ZM6.5 14.6001C6.68234 14.6001 6.8572 14.6738 6.98614 14.8051C7.11507 14.9364 7.1875 15.1144 7.1875 15.3001V19.5C7.1875 19.6857 7.11507 19.8637 6.98614 19.995C6.8572 20.1263 6.68234 20.2 6.5 20.2C6.31766 20.2 6.1428 20.1263 6.01386 19.995C5.88493 19.8637 5.8125 19.6857 5.8125 19.5V15.3001C5.8125 15.1144 5.88493 14.9364 6.01386 14.8051C6.1428 14.6738 6.31766 14.6001 6.5 14.6001ZM9.25 14.6001C9.43234 14.6001 9.6072 14.6738 9.73614 14.8051C9.86507 14.9364 9.9375 15.1144 9.9375 15.3001V19.5C9.9375 19.6857 9.86507 19.8637 9.73614 19.995C9.6072 20.1263 9.43234 20.2 9.25 20.2C9.06766 20.2 8.8928 20.1263 8.76386 19.995C8.63493 19.8637 8.5625 19.6857 8.5625 19.5V15.3001C8.5625 15.1144 8.63493 14.9364 8.76386 14.8051C8.8928 14.6738 9.06766 14.6001 9.25 14.6001ZM12 14.6001C12.1823 14.6001 12.3572 14.6738 12.4861 14.8051C12.6151 14.9364 12.6875 15.1144 12.6875 15.3001V19.5C12.6875 19.6857 12.6151 19.8637 12.4861 19.995C12.3572 20.1263 12.1823 20.2 12 20.2C11.8177 20.2 11.6428 20.1263 11.5139 19.995C11.3849 19.8637 11.3125 19.6857 11.3125 19.5V15.3001C11.3125 15.1144 11.3849 14.9364 11.5139 14.8051C11.6428 14.6738 11.8177 14.6001 12 14.6001ZM14.75 14.6001C14.9323 14.6001 15.1072 14.6738 15.2361 14.8051C15.3651 14.9364 15.4375 15.1144 15.4375 15.3001V19.5C15.4375 19.6857 15.3651 19.8637 15.2361 19.995C15.1072 20.1263 14.9323 20.2 14.75 20.2C14.5677 20.2 14.3928 20.1263 14.2639 19.995C14.1349 19.8637 14.0625 19.6857 14.0625 19.5V15.3001C14.0625 15.1144 14.1349 14.9364 14.2639 14.8051C14.3928 14.6738 14.5677 14.6001 14.75 14.6001ZM17.5 14.6001C17.6823 14.6001 17.8572 14.6738 17.9861 14.8051C18.1151 14.9364 18.1875 15.1144 18.1875 15.3001V19.5C18.1875 19.6857 18.1151 19.8637 17.9861 19.995C17.8572 20.1263 17.6823 20.2 17.5 20.2C17.3177 20.2 17.1428 20.1263 17.0139 19.995C16.8849 19.8637 16.8125 19.6857 16.8125 19.5V15.3001C16.8125 15.1144 16.8849 14.9364 17.0139 14.8051C17.1428 14.6738 17.3177 14.6001 17.5 14.6001Z" fill="#202843"/>
</svg>
