<svg width="45" height="45" viewBox="0 0 45 45" fill="none" xmlns="http://www.w3.org/2000/svg">
<rect width="45" height="45" fill="#B9FBFF"/>
<path d="M22.3625 13.2694C26.3833 13.2694 30.4038 13.2692 34.4246 13.2694C35.8093 13.2694 36.8905 14.3453 36.8918 15.7331C36.8945 18.5757 36.8927 21.4186 36.8927 24.2612C36.8927 25.835 36.8932 27.4088 36.8925 28.9826C36.8921 30.1147 36.1396 31.0892 35.0426 31.3655C34.8547 31.4129 34.6561 31.4391 34.4625 31.4394C26.3986 31.443 18.3347 31.4425 10.2708 31.4421C8.90208 31.4421 7.81663 30.3554 7.81663 28.988C7.81663 24.5639 7.81663 20.1401 7.81641 15.716C7.81641 14.3584 8.90614 13.2696 10.2665 13.2696C14.2986 13.2696 18.3304 13.2696 22.3625 13.2694ZM9.86124 14.3746C9.85853 14.3882 9.85605 14.4017 9.85334 14.4155C14.02 18.0762 18.187 21.7367 22.3557 25.3992C26.5646 21.7421 30.7621 18.095 34.9595 14.4478C34.9566 14.4316 34.9534 14.4153 34.9505 14.3992C34.7584 14.3762 34.5667 14.3333 34.3746 14.3333C28.8367 14.3297 23.2988 14.3303 17.7609 14.3303C15.2837 14.3303 12.8065 14.3294 10.3293 14.3321C10.1732 14.3321 10.0173 14.3597 9.86124 14.3746ZM35.1328 30.192C35.0878 30.1613 35.0548 30.138 35.0209 30.1159C34.3823 29.6966 33.7435 29.2775 33.1046 28.8584C30.6532 27.2502 28.2015 25.643 25.7521 24.0317C25.6579 23.9697 25.6057 23.9808 25.5255 24.0509C24.5022 24.9448 23.4757 25.8352 22.4499 26.7263C22.4194 26.7529 22.3871 26.7776 22.3492 26.8085C21.2703 25.861 20.1961 24.918 19.1174 23.9707C15.9449 26.0496 12.7776 28.125 9.59581 30.2101C9.8382 30.34 10.0754 30.3822 10.3232 30.3822C18.3259 30.382 26.3288 30.382 34.3315 30.382C34.3728 30.382 34.4144 30.3834 34.4557 30.3816C34.6909 30.3718 34.915 30.3237 35.1328 30.192ZM9.02248 15.1021C8.91337 15.3235 8.87723 15.5429 8.87723 15.7704C8.87723 17.3288 8.87723 18.8873 8.87723 20.4457C8.87723 23.2766 8.87655 26.1075 8.87858 28.9383C8.87858 29.078 8.9014 29.2174 8.91586 29.3818C12.0563 27.3241 15.1672 25.2858 18.2875 23.2414C15.1956 20.5248 12.1166 17.8202 9.02248 15.1021ZM35.7983 29.3522C35.8091 29.2009 35.8254 29.0816 35.8254 28.9623C35.8267 24.5538 35.8269 20.1453 35.8238 15.7367C35.8238 15.5919 35.7881 15.4469 35.7655 15.3025C35.7603 15.2688 35.7418 15.2372 35.7244 15.1923C32.6341 17.8774 29.5583 20.5503 26.4711 23.2328C29.5793 25.272 32.6739 27.3024 35.7983 29.3522Z" fill="#009CA6"/>
</svg>
