<svg width="45" height="45" viewBox="0 0 45 45" fill="none" xmlns="http://www.w3.org/2000/svg">
<rect width="45" height="45" fill="#C7DFFF"/>
<path d="M23.1312 35.5159C20.8941 30.5607 18.6479 25.7229 16.5203 20.8339C14.6817 16.607 16.8047 11.9362 21.066 10.7143C23.9829 9.8777 26.6336 10.4736 28.7065 12.7052C30.8235 14.9834 31.3861 17.7055 30.1437 20.5781C28.8221 23.6328 27.3013 26.6032 25.8808 29.6157C25.0368 31.4049 24.2216 33.2076 23.3928 35.0028C23.3229 35.1563 23.2407 35.3023 23.1312 35.5159ZM23.1206 33.4514C23.8095 32.0083 24.4254 30.7217 25.0383 29.4337C26.5029 26.3549 28.0389 23.3077 29.4061 20.1884C30.6029 17.4572 29.6509 14.3243 27.2724 12.5065C25.0261 10.7896 21.7625 10.7655 19.4007 12.4493C17.0511 14.1257 15.9576 17.2511 17.0876 19.9416C18.9764 24.4363 21.0553 28.8543 23.1206 33.4514Z" fill="#003D8F"/>
<path d="M27.0984 18.0335C27.0908 20.1131 25.3784 21.803 23.2827 21.8C21.1962 21.797 19.4792 20.0891 19.4746 18.0155C19.4701 15.9239 21.1536 14.24 23.2629 14.225C25.4088 14.2084 27.106 15.8953 27.0984 18.0335ZM23.3101 20.9377C24.9662 20.9347 26.3152 19.5895 26.2909 17.9688C26.2665 16.3753 24.9267 15.0661 23.3146 15.0631C21.6539 15.0601 20.2943 16.3843 20.2974 18.0034C20.3019 19.6421 21.6326 20.9408 23.3101 20.9377Z" fill="#003D8F"/>
</svg>
