<svg width="45" height="45" viewBox="0 0 45 45" fill="none" xmlns="http://www.w3.org/2000/svg">
<rect width="45" height="45" fill="#BFFFDD"/>
<path d="M11.4062 18.8417C11.4157 17.6384 11.8131 16.4545 12.6461 15.4329C13.3582 14.5597 14.291 14.0839 15.4215 14.0011C15.7693 13.9756 16.1132 14.0012 16.4567 14.0578C16.6645 14.0919 16.826 14.189 16.946 14.3584C17.1947 14.7098 17.4519 15.0554 17.6889 15.4142C18.1388 16.0949 18.5511 16.798 18.876 17.5478C19.0718 17.9994 19.2369 18.4609 19.2765 18.9566C19.309 19.363 19.2385 19.7413 18.9574 20.0583C18.8193 20.2139 18.6374 20.3072 18.4592 20.4048C18.1317 20.584 17.8015 20.7583 17.4747 20.9389C17.3687 20.9974 17.2669 21.0648 17.1686 21.1353C17.0557 21.2164 17.0516 21.2266 17.1286 21.3373C17.3049 21.5903 17.4731 21.851 17.6705 22.0869C18.4303 22.9951 19.2584 23.8407 20.0954 24.6772C21.0292 25.6105 21.9744 26.5322 22.9946 27.3728C23.1783 27.5242 23.3885 27.6436 23.5833 27.7821C23.659 27.8359 23.7119 27.8188 23.7548 27.7476C23.9046 27.4987 24.0558 27.2508 24.2007 26.999C24.3441 26.7496 24.4784 26.495 24.6201 26.2447C24.8374 25.8615 25.1817 25.679 25.6098 25.6374C26.034 25.5961 26.4379 25.6941 26.8342 25.8293C27.6179 26.0967 28.3439 26.4844 29.0391 26.926C29.5587 27.2561 30.0592 27.6162 30.5662 27.9661C30.7389 28.0853 30.8349 28.2496 30.8677 28.4623C31.0186 29.4417 30.8876 30.3702 30.375 31.2298C29.9911 31.8733 29.4467 32.3527 28.7992 32.7204C28.0989 33.1183 27.3499 33.3715 26.545 33.4479C25.7777 33.5206 25.0218 33.4451 24.2748 33.2643C23.0369 32.9647 21.9018 32.4274 20.8186 31.773C19.4536 30.9485 18.2119 29.9629 17.0432 28.8835C16.7924 28.6519 16.5341 28.4265 16.3013 28.1778C15.9349 27.7865 15.5828 27.3815 15.2325 26.9756C14.4824 26.1062 13.7962 25.1891 13.1934 24.2119C12.577 23.2127 12.0576 22.1686 11.7273 21.0379C11.5281 20.3572 11.4117 19.6637 11.4062 18.8417ZM12.5034 18.8214C12.5098 19.6284 12.6332 20.2777 12.8346 20.9136C13.1316 21.8515 13.5682 22.725 14.0801 23.5626C14.8304 24.7907 15.7229 25.9108 16.6888 26.9758C17.3775 27.7352 18.134 28.422 18.9235 29.0736C20.05 30.0036 21.241 30.8385 22.5615 31.4772C23.4604 31.912 24.3919 32.242 25.3931 32.3512C26.4503 32.4666 27.4399 32.2701 28.3477 31.7137C29.4137 31.0604 29.9191 30.1147 29.8134 28.86C29.8074 28.7893 29.7842 28.7392 29.7237 28.695C29.1743 28.2931 28.6044 27.923 28.0131 27.5858C27.5222 27.3059 27.0205 27.0472 26.4826 26.8658C26.2462 26.786 26.0066 26.7207 25.7532 26.7218C25.648 26.7222 25.579 26.7595 25.5285 26.8556C25.3805 27.1372 25.2249 27.4146 25.0722 27.6938C24.9151 27.981 24.7586 28.2687 24.5387 28.5154C24.1717 28.9275 23.6981 29.0367 23.1958 28.8061C22.9984 28.7154 22.8019 28.6081 22.6334 28.473C22.186 28.1148 21.7387 27.7536 21.3196 27.3635C20.58 26.6753 19.8543 25.9718 19.1355 25.262C18.3559 24.4924 17.6019 23.6978 16.8893 22.8653C16.6012 22.5287 16.323 22.1847 16.1216 21.7859C15.8722 21.292 15.9249 20.8231 16.2989 20.449C16.4346 20.3132 16.5928 20.1919 16.7588 20.0952C17.1808 19.8493 17.611 19.617 18.0425 19.3878C18.1508 19.3303 18.189 19.2529 18.1871 19.1418C18.1866 19.1086 18.1849 19.0753 18.1818 19.042C18.1444 18.657 18.0093 18.3 17.8538 17.951C17.4406 17.0225 16.8958 16.1707 16.3166 15.3384C16.1986 15.1688 16.0738 15.0903 15.8616 15.0839C14.9793 15.0579 14.2147 15.3255 13.6203 15.9822C12.8583 16.8242 12.5171 17.8336 12.5034 18.8214Z" fill="#007C39"/>
<path d="M22.6431 11.4058C24.9956 11.4502 27.1251 12.1553 28.9934 13.5855C30.8995 15.0448 32.198 16.925 32.8301 19.2459C33.1083 20.2673 33.2169 21.3091 33.1731 22.3668C33.16 22.6838 32.9115 22.9243 32.6012 22.9172C32.279 22.9098 32.0445 22.6577 32.0405 22.3336C32.0352 21.916 32.0376 21.497 32.0017 21.0817C31.8989 19.8943 31.5665 18.7691 31.0085 17.7154C29.9562 15.7282 28.4034 14.2639 26.3419 13.3475C25.0245 12.7619 23.6383 12.5117 22.1976 12.5537C22.1009 12.5564 22.002 12.5644 21.9073 12.5497C21.6273 12.5061 21.4374 12.2587 21.4456 11.9619C21.453 11.6859 21.6588 11.4553 21.9327 11.424C22.0502 11.4107 22.1693 11.4093 22.2877 11.4065C22.4061 11.4036 22.5247 11.4058 22.6431 11.4058Z" fill="#007C39"/>
<path d="M22.6807 14.3516C24.8654 14.4237 26.7048 15.2541 28.1745 16.8691C29.1367 17.9263 29.7395 19.1661 29.987 20.5732C30.0795 21.0994 30.1215 21.6304 30.0914 22.1652C30.0737 22.4791 29.8232 22.7157 29.5202 22.7076C29.1909 22.6987 28.944 22.4484 28.9566 22.1199C28.99 21.2459 28.8612 20.3994 28.5383 19.5847C28.1608 18.6324 27.5789 17.8218 26.8183 17.1367C25.9177 16.3258 24.8733 15.7999 23.6798 15.5735C23.2031 15.4831 22.7212 15.4589 22.2365 15.4751C21.9982 15.4831 21.8176 15.373 21.7144 15.161C21.6093 14.9454 21.6394 14.7351 21.7923 14.5492C21.8979 14.4206 22.0409 14.3563 22.2071 14.3521C22.3646 14.3485 22.5226 14.3516 22.6807 14.3516Z" fill="#007C39"/>
<path d="M27.2855 21.9492C27.2789 22.0577 27.2831 22.1682 27.2636 22.2744C27.207 22.5826 26.9471 22.763 26.621 22.7302C26.339 22.7019 26.1195 22.4561 26.1301 22.1604C26.1478 21.6667 26.0881 21.1842 25.9026 20.7265C25.4204 19.5365 24.5465 18.7935 23.2879 18.5169C23.0323 18.4607 22.7641 18.4518 22.5008 18.4424C22.156 18.4298 21.9138 18.2006 21.9121 17.8594C21.9107 17.5408 22.1548 17.3005 22.4872 17.2937C24.7821 17.2468 26.7716 18.8512 27.1981 21.1006C27.2508 21.3789 27.2661 21.6645 27.299 21.9466C27.2944 21.9475 27.29 21.9482 27.2855 21.9492Z" fill="#007C39"/>
</svg>
