<svg width="45" height="45" viewBox="0 0 45 45" fill="none" xmlns="http://www.w3.org/2000/svg">
<rect width="45" height="45" fill="#F9D7FF"/>
<path d="M13.2891 22.286C13.2865 16.7863 17.7624 12.3067 23.2453 12.2886C28.7642 12.2706 33.2839 16.7425 33.2891 22.2834C33.2942 27.7264 28.9136 32.2679 23.3483 32.2885C17.765 32.3091 13.2916 27.8372 13.2891 22.286ZM14.2857 22.8579C14.5072 27.4663 18.432 31.1705 22.81 31.2993C22.81 30.8897 22.8049 30.4802 22.8126 30.0706C22.8152 29.9727 22.8358 29.8697 22.8796 29.7821C22.9749 29.5915 23.1989 29.4987 23.3998 29.5502C23.629 29.6069 23.7758 29.7847 23.7784 30.0345C23.7835 30.4286 23.7784 30.8228 23.7784 31.2143C23.7784 31.2452 23.7784 31.2761 23.7784 31.3225C26.4696 31.1164 28.6741 29.9985 30.3609 27.9042C31.543 26.4359 32.1688 24.7435 32.3027 22.8604C31.8546 22.8604 31.4297 22.8656 31.0022 22.8579C30.9017 22.8553 30.7936 22.8269 30.706 22.778C30.5206 22.6672 30.451 22.4457 30.5129 22.2396C30.5747 22.0361 30.7524 21.8996 30.9738 21.8996C31.4142 21.897 31.8572 21.8996 32.2976 21.8996C32.1559 17.1263 28.1101 13.3808 23.7423 13.2855C23.7552 13.3396 23.7758 13.3911 23.7758 13.4452C23.7784 13.8729 23.7912 14.3005 23.7706 14.7255C23.7603 14.9831 23.5286 15.166 23.2839 15.1583C23.029 15.1505 22.8152 14.9522 22.81 14.6946C22.8023 14.2232 22.8075 13.7544 22.8075 13.283C18.2311 13.4195 14.3681 17.3788 14.2806 21.897C14.3243 21.897 14.3707 21.897 14.4145 21.897C14.7776 21.897 15.1433 21.8944 15.5064 21.897C15.818 21.8996 16.0344 22.1701 15.9751 22.474C15.9313 22.7007 15.7459 22.8553 15.4987 22.8553C15.0995 22.8604 14.6978 22.8579 14.2857 22.8579Z" fill="#7B008F"/>
<path d="M22.2918 19.8673C22.2918 19.1778 22.2891 18.4909 22.2918 17.8014C22.2945 17.4244 22.6471 17.1868 22.9915 17.3314C23.2068 17.4218 23.301 17.5897 23.301 17.8143C23.301 18.7259 23.301 19.6349 23.301 20.5464C23.301 20.9105 23.3037 21.2772 23.2983 21.6413C23.2983 21.7369 23.3253 21.804 23.3952 21.8711C24.6332 23.0564 25.8711 24.2443 27.1091 25.4296C27.2652 25.5794 27.3325 25.7498 27.2598 25.9564C27.1952 26.1397 27.058 26.2482 26.8615 26.2818C26.6677 26.3127 26.5143 26.2353 26.3798 26.1062C25.7743 25.5226 25.1687 24.9415 24.5605 24.3605C23.8716 23.6994 23.1826 23.0358 22.491 22.3773C22.351 22.243 22.2865 22.0958 22.2891 21.9073C22.2945 21.2282 22.2918 20.5464 22.2918 19.8673Z" fill="#7B008F"/>
</svg>
