<svg width="91" height="76" viewBox="0 0 91 76" fill="none" xmlns="http://www.w3.org/2000/svg">
<path d="M69.7766 66.6884C54.2621 66.6884 38.7977 66.6884 23.2988 66.6884C23.2988 44.4538 23.2988 22.2418 23.2988 0C38.8081 0 54.284 0 69.8131 0C69.8131 0.194077 69.8131 0.360428 69.8131 0.526779C69.8131 8.36481 69.811 16.2018 69.8214 24.0398C69.8214 24.4116 69.7245 24.6806 69.4526 24.9394C68.9035 25.461 68.3868 26.0145 67.7481 26.6665C67.7481 18.3829 67.7481 10.2563 67.7481 2.07528C53.6183 2.07528 39.551 2.07528 25.4159 2.07528C25.4159 22.9082 25.4159 43.7371 25.4159 64.6131C39.4999 64.6131 53.5693 64.6131 67.6929 64.6131C67.7023 64.417 67.7169 64.2363 67.7169 64.0555C67.7179 57.6387 67.721 51.2208 67.7096 44.804C67.7085 44.4641 67.8117 44.2361 68.0534 44.004C68.6076 43.4691 69.1317 42.9033 69.6672 42.3498C69.7037 42.3724 69.7402 42.396 69.7766 42.4186C69.7766 50.4948 69.7766 58.5711 69.7766 66.6884Z" fill="black"/>
<path d="M21.1458 6.01733C21.1458 6.68685 21.1645 7.30194 21.1302 7.91497C21.1229 8.03717 20.928 8.21687 20.7895 8.25281C18.8287 8.75803 16.8606 9.23654 14.8966 9.73354C10.8855 10.7481 6.87634 11.7688 2.86618 12.7874C2.78492 12.808 2.70573 12.8367 2.57238 12.8788C7.82027 33.0772 13.0619 53.255 18.3171 73.4841C19.5205 73.1761 20.6696 72.8783 21.8209 72.5867C23.8473 72.0742 25.8748 71.568 27.9013 71.0566C30.7716 70.3327 33.6409 69.6067 36.5113 68.8848C36.6946 68.8386 36.8853 68.7934 37.0728 68.7924C39.6942 68.7842 42.3155 68.7832 44.9369 68.7821C44.9608 68.7821 44.9848 68.8088 45.0827 68.8674C35.633 71.2497 26.2436 73.6166 16.7949 75.9979C11.197 54.4502 5.6063 32.9334 0 11.3519C7.04929 9.57335 14.0725 7.80202 21.1458 6.01733Z" fill="black"/>
<path d="M79.881 17.6909C81.8387 19.6265 83.8047 21.5714 85.7426 23.4875C78.3318 30.7916 70.8678 38.1501 63.4226 45.4901C61.491 43.5801 59.5239 41.6342 57.584 39.715C64.999 32.3904 72.4525 25.0289 79.881 17.6909ZM78.4276 22.0469C72.4327 27.9544 66.4743 33.8249 60.5116 39.7006C60.9888 40.1771 61.4691 40.6556 61.9244 41.1095C67.9016 35.2174 73.8684 29.3345 79.8102 23.4762C79.3601 23.0121 78.8965 22.5326 78.4276 22.0469Z" fill="black"/>
<path d="M61.3386 29.2039C61.3386 29.897 61.3386 30.5439 61.3386 31.2299C51.4877 31.2299 41.6556 31.2299 31.7891 31.2299C31.7891 30.5644 31.7891 29.9052 31.7891 29.2039C41.6243 29.2039 51.4554 29.2039 61.3386 29.2039Z" fill="black"/>
<path d="M61.3373 16.6792C61.3373 17.3662 61.3373 18.0131 61.3373 18.7031C51.4947 18.7031 41.6636 18.7031 31.793 18.7031C31.793 18.0367 31.793 17.3672 31.793 16.6792C41.6303 16.6792 51.453 16.6792 61.3373 16.6792Z" fill="black"/>
<path d="M31.7715 10.354C31.7715 9.68242 31.7715 9.03653 31.7715 8.35059C41.6297 8.35059 51.4701 8.35059 61.3345 8.35059C61.3345 9.02729 61.3345 9.66908 61.3345 10.354C51.4712 10.354 41.6297 10.354 31.7715 10.354Z" fill="black"/>
<path d="M31.7656 14.5167C31.7656 13.843 31.7656 13.2115 31.7656 12.5369C41.6165 12.5369 51.4559 12.5369 61.3255 12.5369C61.3255 13.191 61.3255 13.8328 61.3255 14.5167C51.4882 14.5167 41.6509 14.5167 31.7656 14.5167Z" fill="black"/>
<path d="M31.7793 20.8494C41.6333 20.8494 51.4498 20.8494 61.3111 20.8494C61.3111 21.5024 61.3111 22.1576 61.3111 22.863C51.4842 22.863 41.6448 22.863 31.7793 22.863C31.7793 22.1987 31.7793 21.5538 31.7793 20.8494Z" fill="black"/>
<path d="M61.3349 25.0442C61.3349 25.7312 61.3349 26.3596 61.3349 27.0342C51.4976 27.0342 41.6686 27.0342 31.7969 27.0342C31.7969 26.3914 31.7969 25.7363 31.7969 25.0442C41.6207 25.0442 51.4497 25.0442 61.3349 25.0442Z" fill="black"/>
<path d="M87.4405 21.9985C85.3963 19.9889 83.4345 18.0604 81.4883 16.1474C82.4562 15.1668 83.4407 14.1933 84.3982 13.1931C84.9577 12.6088 85.6328 12.4178 86.3788 12.6253C86.7768 12.7362 87.1758 12.9785 87.4801 13.2609C88.4261 14.1389 89.3315 15.06 90.2431 15.9728C91.2537 16.9864 91.2496 18.1878 90.2473 19.189C89.3117 20.1224 88.3782 21.0589 87.4405 21.9985Z" fill="black"/>
<path d="M55.9493 41.2231C57.9518 43.2091 59.8823 45.1242 61.8671 47.0937C58.9426 48.0559 56.0201 49.017 52.9727 50.0203C53.9801 47.0434 54.9553 44.16 55.9493 41.2231Z" fill="black"/>
</svg>
