<svg width="36" height="36" viewBox="0 0 36 36" fill="none" xmlns="http://www.w3.org/2000/svg">
<path d="M18.0084 8.00011C22.4334 8.00011 26.8581 7.99986 31.2831 8.00011C32.807 8.00011 33.9969 9.18413 33.9984 10.7115C34.0013 13.8399 33.9994 16.9685 33.9994 20.0969C33.9994 21.8289 33.9998 23.561 33.9991 25.293C33.9986 26.5389 33.1705 27.6113 31.9632 27.9154C31.7564 27.9676 31.5379 27.9964 31.3248 27.9967C22.4503 28.0007 13.5757 28.0002 4.70113 27.9997C3.19481 27.9997 2.00025 26.8037 2.00025 25.2989C2.00025 20.4301 2.00025 15.5615 2 10.6926C2 9.19855 3.19929 8.00036 4.6964 8.00036C9.13381 8.00036 13.571 8.00036 18.0084 8.00011ZM4.2504 9.21645C4.24742 9.23137 4.24468 9.24629 4.2417 9.26146C8.82728 13.2902 13.4131 17.3186 18.0009 21.3493C22.633 17.3246 27.2524 13.3108 31.8718 9.29701C31.8685 9.27911 31.8651 9.26121 31.8618 9.24356C31.6505 9.21819 31.4394 9.17095 31.2281 9.17095C25.1335 9.16698 19.0389 9.16772 12.9442 9.16772C10.218 9.16772 7.49175 9.16673 4.76552 9.16971C4.59373 9.16971 4.42219 9.20004 4.2504 9.21645ZM32.0624 26.6239C32.013 26.5901 31.9767 26.5645 31.9394 26.5402C31.2366 26.0787 30.5335 25.6175 29.8304 25.1562C27.1325 23.3864 24.4344 21.6176 21.7387 19.8443C21.6351 19.7762 21.5776 19.7884 21.4894 19.8654C20.3632 20.8493 19.2335 21.8292 18.1046 22.8098C18.071 22.8392 18.0355 22.8663 17.9937 22.9003C16.8064 21.8575 15.6242 20.8197 14.4371 19.7772C10.9457 22.0651 7.45993 24.3491 3.95829 26.6438C4.22504 26.7868 4.48608 26.8333 4.7588 26.8333C13.566 26.8331 22.3734 26.8331 31.1806 26.8331C31.2261 26.8331 31.2719 26.8345 31.3174 26.8326C31.5762 26.8219 31.8228 26.7689 32.0624 26.6239ZM3.32732 10.0171C3.20724 10.2607 3.16746 10.5022 3.16746 10.7525C3.16746 12.4677 3.16746 14.1828 3.16746 15.8979C3.16746 19.0133 3.16672 22.1288 3.16896 25.2442C3.16896 25.3979 3.19406 25.5513 3.20998 25.7323C6.66613 23.4677 10.0897 21.2245 13.5237 18.9746C10.121 15.9849 6.7325 13.0085 3.32732 10.0171ZM32.7948 25.6998C32.8068 25.5332 32.8247 25.4019 32.8247 25.2706C32.8262 20.4189 32.8264 15.5672 32.8229 10.7155C32.8229 10.5561 32.7837 10.3965 32.7588 10.2376C32.7531 10.2006 32.7327 10.1658 32.7136 10.1163C29.3126 13.0714 25.9275 16.013 22.5301 18.9651C25.9507 21.2093 29.3563 23.4438 32.7948 25.6998Z" fill="#1F2226"/>
</svg>
