<svg width="120" height="87" viewBox="0 0 120 87" fill="none" xmlns="http://www.w3.org/2000/svg">
<g filter="url(#filter0_dd_142_17020)">
<path d="M15.9233 33.5924C16.163 33.8969 16.4203 34.1726 16.6932 34.4192C16.9662 34.6657 17.2204 34.8729 17.4585 35.0391C17.6965 35.2053 17.8629 35.2955 17.9575 35.3117C18.0171 35.322 18.1306 35.2396 18.2924 35.0614C18.4558 34.8856 18.6352 34.6658 18.8299 34.4063C19.0247 34.1467 19.2154 33.8736 19.4017 33.5893C19.588 33.3049 19.7336 33.0602 19.8406 32.8556L19.8452 32.8288C19.6562 32.7347 19.4522 32.6041 19.2334 32.437C19.0125 32.2695 18.7859 32.0734 18.5499 31.8459C18.314 31.6185 18.0777 31.3677 17.841 31.0955C17.6042 30.8234 17.3761 30.5251 17.1564 30.2028C17.0745 30.2609 16.9777 30.3568 16.8614 30.4918C16.7452 30.6269 16.6233 30.7822 16.4959 30.9578C16.3688 31.1313 16.2441 31.3159 16.1224 31.5073C16.0003 31.7008 15.8856 31.8765 15.7778 32.0363C15.6782 32.1976 15.5969 32.3386 15.5314 32.4612C15.466 32.5837 15.432 32.6586 15.4277 32.6833C15.5173 32.9875 15.6812 33.2896 15.9233 33.5924Z" fill="white"/>
<path d="M57.678 45.2218C57.5028 45.0218 57.3354 44.8019 57.1731 44.5638C57.1129 44.6065 57.0416 44.6771 56.9547 44.7768C56.8698 44.8769 56.7783 44.9907 56.6844 45.119C56.5905 45.2472 56.4996 45.3824 56.4097 45.5241C56.3198 45.6658 56.2362 45.7958 56.1567 45.9138C56.0834 46.0329 56.0232 46.1372 55.9761 46.2268C55.929 46.3164 55.9026 46.3713 55.8994 46.3899C55.9651 46.6114 56.0876 46.8342 56.265 47.0579C56.4424 47.2817 56.6319 47.4841 56.8332 47.6674C57.0345 47.8506 57.2222 48.0018 57.3981 48.1233C57.5739 48.2449 57.6956 48.3125 57.7655 48.3245C57.8107 48.3323 57.8933 48.27 58.0129 48.1398C58.1326 48.0096 58.2661 47.8478 58.4091 47.6557C58.552 47.4637 58.6943 47.2631 58.8319 47.0531C58.9695 46.8432 59.0763 46.664 59.155 46.514L59.1581 46.4955C59.02 46.425 58.8694 46.3291 58.7086 46.2059C58.5457 46.0823 58.3782 45.9367 58.206 45.7691C58.0266 45.6066 57.8527 45.4238 57.678 45.2218Z" fill="white"/>
<path d="M30.1763 42.142C30.1768 42.1761 30.1797 42.2084 30.1802 42.2425C30.1814 42.4699 30.1863 42.7128 30.1945 42.9733C30.208 43.5108 30.2375 44.0913 30.28 44.7187C30.3226 45.3461 30.3809 45.9677 30.4527 46.5852C30.5698 47.5057 30.7625 48.3182 31.0329 49.023C31.3034 49.7277 31.6217 50.3261 31.9899 50.8183C32.3585 51.3085 32.7596 51.6959 33.1951 51.981C33.6306 52.2661 34.0633 52.4445 34.4948 52.5187C34.9612 52.5988 35.4521 52.5983 35.9736 52.518C36.493 52.4374 37.0427 52.2664 37.6183 52.0064C38.1963 51.7448 38.807 51.391 39.4504 50.9453C40.0938 50.4995 40.7734 49.9537 41.4888 49.3101L41.5781 49.4061C41.3833 49.9248 41.2208 50.4532 41.0921 50.9938C40.9637 51.5324 40.8602 52.037 40.7802 52.5031C40.6185 53.4458 40.5827 54.4313 40.6732 55.4577C40.7636 56.484 40.9059 57.566 41.1016 58.706C41.1149 58.789 41.1303 58.8596 41.1512 58.9226C41.1725 58.9836 41.2168 59.021 41.2847 59.0326C41.3627 59.0461 41.4336 59.003 41.4996 58.9018C41.5653 58.8027 41.6351 58.6915 41.7088 58.5704C42.3863 57.5189 43.0049 56.5889 43.5652 55.7764C44.1256 54.9638 44.6406 54.2432 45.1077 53.6164C45.5753 52.9875 46.0036 52.4389 46.3956 51.9669C46.7875 51.4948 47.149 51.0771 47.4828 50.7097C47.8162 50.3444 48.1327 50.0166 48.4293 49.7299C48.7178 49.4419 49.0011 49.1593 49.2806 48.8867C49.6196 48.5627 49.9499 48.2776 50.2727 48.0357C50.3064 48.0118 50.336 47.9872 50.3698 47.9632C50.4902 47.8778 50.6106 47.7923 50.7352 47.7075C51.2478 47.3582 51.803 46.9949 52.4008 46.6177C52.999 46.2385 53.6401 45.8305 54.3287 45.3925C55.0153 44.9541 55.7498 44.4582 56.5278 43.906C57.1199 43.5002 57.6515 43.0649 58.1161 42.6011C58.5807 42.1374 58.9912 41.6558 59.3435 41.1557C59.6432 40.7528 59.9791 40.2499 60.3475 39.6443C60.7178 39.039 61.1462 38.293 61.6367 37.4068L61.5517 37.286C61.0467 37.4923 60.5266 37.6259 59.9915 37.6868C59.4568 37.7457 58.9148 37.7608 58.36 37.7271C57.8073 37.6937 57.2519 37.6386 56.698 37.5625C56.1342 37.4826 55.5772 37.4123 55.0233 37.349C54.4714 37.286 53.93 37.2482 53.3987 37.2376C52.8675 37.2269 52.3534 37.2766 51.8564 37.3866C51.3574 37.4962 50.883 37.6843 50.4291 37.9503C49.9752 38.2163 49.5509 38.5936 49.155 39.0883C48.9645 39.3231 48.7836 39.5766 48.6117 39.8507C48.4399 40.1249 48.2882 40.4046 48.154 40.6937C48.0198 40.9828 47.9065 41.2733 47.8124 41.563C47.7179 41.8546 47.6489 42.1337 47.6029 42.4018C47.4886 43.0681 47.5353 43.6835 47.7448 44.2504C47.9543 44.8172 48.2924 45.3616 48.7626 45.8884L48.7534 45.942C48.5537 46.12 48.3497 46.3101 48.1429 46.5166C47.4964 47.153 46.8258 47.8808 46.1317 48.6959C45.4373 49.513 44.7247 50.3992 43.998 51.3552C43.2709 52.3132 42.546 53.3078 41.8288 54.344L41.7261 54.3263C41.6748 54.0584 41.6604 53.7353 41.685 53.3573C41.7097 52.9793 41.7567 52.5945 41.8236 52.2047C41.9453 51.4951 42.1257 50.8381 42.3689 50.2343C42.61 49.6302 42.8611 49.0299 43.1241 48.4338C43.3851 47.8374 43.6425 47.2127 43.8918 46.5611C44.1411 45.9096 44.3373 45.1725 44.4785 44.3494C44.5008 44.2195 44.5043 44.0884 44.4868 43.9559C44.4694 43.8233 44.4142 43.7502 44.3176 43.7336C44.2745 43.7261 44.2299 43.727 44.1836 43.7381C44.1376 43.7472 44.0967 43.7763 44.0632 43.8236C43.7209 44.4252 43.3435 44.9358 42.9343 45.3603C42.5231 45.7844 42.0813 46.165 41.6067 46.5018C40.2067 47.4737 38.9763 48.1478 37.9171 48.5264C36.8579 48.9049 35.9358 49.0268 35.1509 48.8919C34.781 48.8283 34.4276 48.6933 34.0945 48.4895C33.7614 48.2857 33.4606 47.9919 33.1936 47.6126C32.9265 47.2334 32.6943 46.7496 32.4966 46.1635C32.3778 45.8076 32.2775 45.406 32.1997 44.9594C32.1363 44.4537 32.0805 43.9281 32.031 43.3781C31.8984 41.9071 31.818 40.341 31.792 38.6801C31.7577 37.0179 31.6377 35.3749 31.4315 33.7532C31.2253 32.1314 30.9193 30.5117 30.5139 28.8918L30.4112 28.8742C30.0863 29.4236 29.7863 29.9517 29.5135 30.457C29.2324 30.9608 28.9569 31.457 28.6848 31.9454C29.1293 33.9542 29.4778 35.8064 29.7293 37.4975C29.9728 39.1851 30.1256 40.736 30.1763 42.142ZM49.2237 42.4362C48.9249 41.9835 48.8057 41.5808 48.8666 41.226C48.9065 40.9929 49.0479 40.773 49.292 40.5707C49.5362 40.3685 49.91 40.2119 50.4175 40.1016C50.9248 39.9934 51.5743 39.9437 52.3657 39.9544C53.1571 39.9651 54.1229 40.0695 55.2613 40.2652L57.201 40.5985L57.2769 40.7729C55.9172 41.5097 54.6617 42.1816 53.5112 42.7844C52.3603 43.3893 51.396 43.9669 50.618 44.519L50.5754 44.4586C50.5963 44.3369 50.5993 44.2334 50.5826 44.1456C50.5659 44.0578 50.5231 43.9867 50.4525 43.93C49.9323 43.3862 49.5226 42.8889 49.2237 42.4362Z" fill="white"/>
<path d="M46.2654 71.6042C45.9383 71.2911 45.6104 70.9459 45.2796 70.5684C44.9488 70.1909 44.6356 69.7846 44.3414 69.3539C44.2306 69.4325 44.0938 69.564 43.931 69.7484C43.7682 69.9328 43.6005 70.146 43.4237 70.3875C43.2469 70.6289 43.07 70.8831 42.8958 71.1462C42.7196 71.409 42.5609 71.6556 42.4205 71.8821C42.2781 72.1082 42.1639 72.3052 42.0752 72.4768C41.9869 72.6464 41.939 72.7528 41.9316 72.7961C42.047 73.1961 42.2724 73.6086 42.606 74.0312C42.9397 74.4538 43.2952 74.8355 43.6701 75.1781C44.045 75.5208 44.4003 75.8048 44.736 76.0303C45.0718 76.2557 45.2981 76.3796 45.4131 76.3993C45.4871 76.4121 45.6423 76.2964 45.8784 76.0546C46.1145 75.8127 46.3695 75.5104 46.6429 75.1497C46.9164 74.7889 47.1841 74.4123 47.4477 74.0223C47.7093 73.632 47.9096 73.2905 48.0466 72.9976L48.0519 72.9667C47.7931 72.8352 47.5113 72.6529 47.2102 72.4228C46.9091 72.1927 46.5924 71.9174 46.2654 71.6042Z" fill="white"/>
<path d="M60.3711 48.4035C60.2869 48.389 60.2157 48.4214 60.1601 48.4989C60.1025 48.576 60.0366 48.6518 59.9584 48.7254C59.4459 49.2467 58.9565 49.7317 58.4882 50.18C58.02 50.6283 57.5559 51.0646 57.0912 51.4922C56.6265 51.9199 56.1591 52.3385 55.6859 52.7541C55.213 53.1676 54.716 53.5982 54.1957 54.0418C51.1248 56.6398 48.1299 58.8071 45.211 60.5436C42.2921 62.2802 39.4422 63.6272 36.6564 64.5882C33.8709 65.547 31.1512 66.135 28.4927 66.3534C25.8343 66.5718 23.2363 66.4629 20.6965 66.0265C19.326 65.7909 18.0024 65.4297 16.7233 64.9444C15.4446 64.4571 14.2584 63.8625 13.1653 63.1565C12.0722 62.4505 11.0879 61.6401 10.2153 60.7214C9.92869 60.4194 9.65854 60.1076 9.40695 59.7861C9.70398 59.8797 10.0124 59.956 10.3371 60.0118C11.1302 60.1481 11.9428 60.171 12.7746 60.0825C13.6063 59.994 14.4308 59.7874 15.2497 59.4652C16.0686 59.143 16.8673 58.7048 17.6453 58.1526C18.4233 57.6005 19.1543 56.9277 19.8359 56.1359C20.5175 55.3442 21.1366 54.4356 21.6957 53.4084C22.2528 52.3808 22.7248 51.2324 23.1118 49.9632C23.3971 49.1756 23.6559 48.3579 23.886 47.5098C24.1157 46.6638 24.3012 45.8293 24.4424 45.0063C24.527 44.5133 24.5761 43.9803 24.5898 43.4072C24.6035 42.8341 24.5954 42.2529 24.5639 41.6593C24.5325 41.0657 24.4887 40.47 24.4306 39.8718C24.3711 39.2818 24.3165 38.7119 24.2653 38.1594C24.2142 37.607 24.172 37.088 24.1394 36.6004C24.1067 36.1127 24.1066 35.6816 24.1354 35.3044L24.0105 35.2553C23.6461 35.8255 23.336 36.3264 23.08 36.7581C22.8237 37.1918 22.6153 37.568 22.4528 37.8862C22.292 38.2068 22.1679 38.4742 22.082 38.691C21.9962 38.9077 21.9418 39.0767 21.9209 39.1984C21.8778 39.45 21.8722 39.791 21.9055 40.2256C21.9371 40.6579 21.9849 41.1439 22.0495 41.6795C22.1118 42.2168 22.1862 42.7817 22.2708 43.3738C22.355 43.968 22.4269 44.5474 22.4842 45.1136C22.5415 45.6798 22.5808 46.2153 22.6024 46.718C22.622 47.2204 22.6043 47.6442 22.5448 47.9907C22.4514 48.5353 22.2374 49.1292 21.9073 49.7711C21.5751 50.4126 21.1456 51.0544 20.619 51.6944C20.0925 52.3344 19.4842 52.9455 18.7945 53.5256C18.1048 54.1057 17.3518 54.5984 16.5379 55.0022C15.724 55.4059 14.8617 55.6973 13.9514 55.8742C13.0431 56.0515 12.1089 56.0587 11.1514 55.8942C10.4528 55.7741 9.81823 55.527 9.2478 55.1529C8.67736 54.7788 8.20312 54.3002 7.82268 53.7189C7.44223 53.1375 7.18122 52.464 7.03725 51.7003C6.96462 51.3099 6.92877 50.9024 6.93414 50.4765C6.94766 50.3853 6.96117 50.2942 6.9771 50.2014C7.21137 48.8359 7.63801 47.5205 8.25702 46.2551C8.87604 44.9897 9.70833 43.7758 10.7535 42.6155C11.7988 41.4552 13.0579 40.355 14.5337 39.3112C16.0092 38.2695 17.7194 37.2893 19.6686 36.3714C19.8123 36.2984 19.8885 36.2244 19.9012 36.1502C19.9104 36.0966 19.8853 36.0583 19.8244 36.0308C19.7635 36.0034 19.691 35.9824 19.6067 35.9679C19.3951 35.9315 18.9012 36.0484 18.123 36.3181C17.3448 36.5878 16.3818 37.0594 15.236 37.7331C13.7023 38.6459 12.3482 39.6215 11.1775 40.6625C10.0067 41.7036 9.00125 42.8049 8.16101 43.9664C7.32078 45.128 6.63997 46.3467 6.11929 47.6183C5.59345 48.8955 5.21407 50.2191 4.97839 51.5928C4.6645 53.4224 4.60112 55.1358 4.78862 56.7309C4.97611 58.326 5.3665 59.7989 5.96014 61.1474C6.55379 62.4959 7.33184 63.719 8.29224 64.8163C9.25506 65.9118 10.3543 66.8779 11.5948 67.7112C12.8353 68.5444 14.1945 69.241 15.6702 69.8004C17.148 70.3601 18.6969 70.7771 20.3202 71.0561C23.049 71.525 25.8494 71.6007 28.7195 71.2828C31.5897 70.9649 34.5352 70.2076 37.556 69.011C40.5769 67.8144 43.6781 66.1495 46.8593 64.0185C50.0405 61.8875 53.3132 59.235 56.6786 56.0675L56.795 56.1533C56.761 56.2898 56.721 56.4613 56.6743 56.672C56.6276 56.8827 56.5787 57.1057 56.5277 57.3412C56.4768 57.5766 56.4279 57.8124 56.3821 58.0424C56.3359 58.2744 56.2995 58.4741 56.2705 58.6433C56.2433 58.8021 56.2142 58.9839 56.1849 59.1913C56.1557 59.3986 56.1259 59.5973 56.0991 59.7902C56.0707 59.9807 56.0488 60.1574 56.0339 60.3184C56.0169 60.479 56.0142 60.5932 56.0238 60.6606C56.0281 60.7591 56.0489 60.8476 56.0844 60.9238C56.12 61 56.1633 61.0435 56.2168 61.0527C56.301 61.0672 56.395 60.9878 56.5008 60.8148C56.6067 60.6419 56.6833 60.4788 56.7311 60.3235C57.0768 59.1959 57.3917 58.2116 57.6773 57.3731C57.9629 56.5345 58.2285 55.7754 58.4748 55.0915C58.7229 54.41 58.955 53.7725 59.1776 53.178C59.3857 52.5937 59.5943 51.9818 59.8014 51.3422C59.8261 51.2594 59.8705 51.0992 59.9332 50.8573C59.9955 50.6174 60.0668 50.3621 60.1447 50.0931C60.2105 49.8326 60.2746 49.5824 60.339 49.3429C60.4013 49.103 60.4406 48.9357 60.4569 48.8408C60.4678 48.7768 60.4762 48.6912 60.4839 48.5842C60.4938 48.4776 60.4554 48.4179 60.3711 48.4035Z" fill="white"/>
<path d="M75.4202 49.8007C75.6143 50.0252 75.8298 50.2491 76.062 50.4738C76.2942 50.6985 76.5276 50.9042 76.7618 51.0931C76.9962 51.2799 77.2124 51.4381 77.4129 51.5639C77.6131 51.6917 77.7824 51.7654 77.9201 51.7891C77.9632 51.7965 78.0666 51.6996 78.2302 51.4983C78.3937 51.2971 78.5785 51.0464 78.7827 50.7439C78.9869 50.4413 79.1861 50.1188 79.3802 49.7763C79.5744 49.4338 79.7228 49.1238 79.825 48.8483C79.5472 48.6922 79.2593 48.4835 78.9546 48.2251C78.6519 47.9671 78.3558 47.6954 78.0684 47.4103C77.7806 47.1272 77.5206 46.8426 77.2859 46.558C77.0533 46.2738 76.8682 46.0212 76.7326 45.8004C76.6271 45.8481 76.4638 46.0111 76.2429 46.2875C76.0217 46.5659 75.8003 46.8697 75.5822 47.2038C75.3624 47.5356 75.1654 47.8457 74.9914 48.1322C74.8174 48.4188 74.7263 48.5921 74.7154 48.656C74.7366 48.7914 74.8094 48.9589 74.9379 49.1593C75.0664 49.3598 75.2239 49.5759 75.4202 49.8007Z" fill="white"/>
<path d="M80.8804 49.7918C81.0807 50.0173 81.2955 50.2326 81.5261 50.4421C81.7567 50.6517 81.9765 50.8381 82.1867 51.0059C82.397 51.1737 82.5859 51.3059 82.753 51.4047C82.92 51.5035 83.0455 51.5612 83.1298 51.5757C83.1606 51.581 83.2253 51.5369 83.3235 51.4454C83.4196 51.3537 83.5521 51.1981 83.7202 50.9827C83.8883 50.7674 84.0924 50.4776 84.3323 50.1153C84.5742 49.7534 84.855 49.3005 85.1746 48.7566C84.5629 48.4009 83.9747 47.9579 83.4106 47.4235C82.8461 46.8912 82.3926 46.3163 82.0535 45.7038C81.8783 45.8372 81.6808 46.0389 81.4602 46.3132C81.2401 46.5854 81.0308 46.868 80.8345 47.1613C80.6383 47.4546 80.4675 47.7225 80.3226 47.9631C80.1773 48.2057 80.0997 48.3622 80.0869 48.4365C80.1283 48.639 80.2197 48.8585 80.3648 49.0979C80.5082 49.3349 80.68 49.5662 80.8804 49.7918Z" fill="white"/>
<path d="M115.905 17.5794C115.906 17.5519 115.877 17.5342 115.826 17.5254C115.772 17.5162 115.727 17.5359 115.685 17.5819C115.643 17.6405 115.586 17.7115 115.517 17.7972C114.969 18.5844 114.292 19.3896 113.483 20.2083C112.676 21.0273 111.789 21.8433 110.825 22.6524C109.861 23.4614 108.848 24.262 107.786 25.0542C106.723 25.8463 105.664 26.6092 104.609 27.3432C103.554 28.0772 102.538 28.7732 101.558 29.4329C100.567 30.0908 99.665 30.6982 98.8523 31.2551C98.0397 31.812 97.3435 32.306 96.7602 32.7346C96.1768 33.1631 95.7643 33.5084 95.5243 33.773C94.9243 34.4216 94.4316 35.2097 94.0434 36.1411C93.6555 37.0704 93.327 38.0354 93.0584 39.034C92.8415 39.5956 92.665 40.094 92.5252 40.5266C92.3854 40.9591 92.2664 41.357 92.1668 41.7158C92.0671 42.0745 91.983 42.4168 91.9165 42.743C91.8499 43.0692 91.7864 43.4023 91.7284 43.7406C91.6466 44.2171 91.6063 44.773 91.6049 45.4098C91.6036 46.0466 91.6239 46.7169 91.6661 47.4207C91.7082 48.1245 91.7658 48.8373 91.837 49.5567C91.9082 50.2761 91.9707 50.96 92.0227 51.606C92.0748 52.252 92.11 52.8357 92.1288 53.355C92.1473 53.8763 92.1324 54.2836 92.0814 54.5806C91.9562 55.3109 91.6581 55.9753 91.1849 56.5756C90.7117 57.176 90.0693 57.7642 89.2547 58.3441C88.4406 58.922 87.6658 59.307 86.933 59.4974C86.2001 59.6879 85.5019 59.7251 84.8382 59.611C84.4067 59.5368 83.9549 59.3339 83.485 59.0026C83.3228 58.8876 83.1567 58.7465 82.9882 58.5817C82.9552 58.5399 82.918 58.4974 82.8867 58.458C82.6109 58.1048 82.3819 57.8 82.1982 57.5391C82.0127 57.2885 81.854 57.0913 81.7228 56.9435C81.5917 56.7957 81.4396 56.708 81.2711 56.679C81.0286 56.6373 80.7675 56.7538 80.488 57.0265C80.2085 57.2991 79.9208 57.6446 79.6268 58.0634C79.3332 58.4801 79.0367 58.9261 78.738 59.3972C78.4307 59.8562 78.1293 60.2567 77.8317 60.5984C77.4225 61.0844 76.9804 61.516 76.5025 61.8968C76.0247 62.2776 75.5396 62.5893 75.0475 62.8317C74.5553 63.0741 74.071 63.2458 73.5919 63.3503C73.1132 63.4528 72.6743 63.4708 72.2736 63.4019C71.6201 63.2896 71.0542 63.0989 70.5733 62.8315C70.0924 62.5641 69.6858 62.1969 69.3551 61.7324C69.0223 61.2674 68.754 60.6862 68.5472 59.9923C68.421 59.5693 68.3155 59.0988 68.2268 58.5803C68.1535 57.9837 68.0866 57.3628 68.028 56.7177C67.8646 54.9207 67.7679 53.0056 67.7357 50.9742C67.6931 48.9409 67.5466 46.9345 67.2964 44.9526C67.0441 42.9704 66.6712 40.9887 66.1752 39.0093L66.0478 38.9874C65.651 39.6603 65.2845 40.3045 64.95 40.9223C64.6053 41.5383 64.2685 42.1451 63.9375 42.7423C64.4807 45.1992 64.907 47.4619 65.2143 49.53C65.5216 51.5981 65.7065 53.4923 65.7689 55.2125C65.77 55.2551 65.7719 55.2937 65.773 55.3363C65.776 55.615 65.7802 55.9109 65.7891 56.2289C65.8075 56.8861 65.8421 57.5971 65.8949 58.3622C65.9477 59.1272 66.018 59.8889 66.1061 60.6452C66.2428 61.7475 66.4624 62.7239 66.7667 63.5767C67.0709 64.4296 67.4393 65.1555 67.8742 65.7526C68.3091 66.3498 68.8046 66.8278 69.3611 67.1846C69.9176 67.5415 70.5224 67.7771 71.1779 67.8897C71.9258 68.0183 72.6591 68.0105 73.3794 67.8689C74.098 67.7248 74.8174 67.4279 75.5342 66.9735C75.9965 66.6835 76.4124 66.343 76.7837 65.9545C77.1529 65.5656 77.4855 65.1683 77.7774 64.7619C78.0692 64.3555 78.336 63.9596 78.5753 63.576C78.806 63.1804 79.0222 62.8331 79.2253 62.5368C79.4285 62.2404 79.619 62.0056 79.8005 61.835C79.9821 61.6645 80.1672 61.5965 80.3563 61.629C80.6296 61.676 80.8953 61.7917 81.1511 61.9779C81.4068 62.1642 81.6683 62.3663 81.9331 62.5859C81.9922 62.6364 82.054 62.6831 82.1133 62.7316C82.3099 62.9055 82.5195 63.0647 82.7446 63.2074C83.1795 63.4839 83.6191 63.6593 84.0609 63.7352C84.967 63.8909 85.8821 63.8103 86.8035 63.4951C87.7249 63.1799 88.6431 62.6369 89.5556 61.8679C89.9131 61.5598 90.2405 61.2296 90.54 60.8776C90.8394 60.5256 91.1237 60.1263 91.3976 59.6765C91.6691 59.2284 91.9403 58.708 92.2109 58.1174C92.4794 57.5265 92.7655 56.8324 93.0653 56.0345C93.1991 55.6986 93.3184 55.3857 93.4204 55.0995C93.5247 54.8117 93.615 54.532 93.696 54.2571C93.775 53.9819 93.8467 53.7118 93.9095 53.4444C93.9723 53.177 94.0297 52.8917 94.0824 52.5843C94.1624 52.1182 94.1993 51.5702 94.1938 50.9365C94.188 50.3047 94.145 49.5562 94.0667 48.6933C93.9573 47.4322 93.8655 46.3398 93.7919 45.4119C93.7184 44.484 93.6644 43.689 93.6327 43.0231C93.6006 42.3593 93.5895 41.8074 93.5994 41.3674C93.6094 40.9274 93.6405 40.5611 93.6914 40.2641C93.7912 39.6824 94.0994 39.1067 94.6143 38.5348C95.1288 37.9649 95.7988 37.3644 96.6245 36.7312C97.4479 36.0997 98.4127 35.4204 99.5122 34.6962C100.612 33.972 101.795 33.156 103.056 32.2495C104.318 31.345 105.644 30.339 107.033 29.2315C108.422 28.126 109.822 26.8715 111.235 25.4685C111.676 25.0432 112.083 24.6204 112.453 24.1999C112.823 23.7794 113.169 23.346 113.49 22.9002C113.81 22.454 114.102 21.9839 114.367 21.49C114.632 20.9961 114.871 20.4638 115.09 19.8899C115.162 19.7175 115.243 19.5128 115.333 19.2775C115.422 19.0422 115.507 18.8169 115.586 18.6033C115.665 18.3896 115.734 18.1976 115.789 18.033C115.845 17.8685 115.876 17.7592 115.886 17.7056C115.902 17.6468 115.907 17.6073 115.905 17.5794Z" fill="white"/>
</g>
<defs>
<filter id="filter0_dd_142_17020" x="0.683594" y="17.5232" width="119.222" height="66.8771" filterUnits="userSpaceOnUse" color-interpolation-filters="sRGB">
<feFlood flood-opacity="0" result="BackgroundImageFix"/>
<feColorMatrix in="SourceAlpha" type="matrix" values="0 0 0 0 0 0 0 0 0 0 0 0 0 0 0 0 0 0 127 0" result="hardAlpha"/>
<feOffset dy="4"/>
<feGaussianBlur stdDeviation="2"/>
<feComposite in2="hardAlpha" operator="out"/>
<feColorMatrix type="matrix" values="0 0 0 0 0 0 0 0 0 0 0 0 0 0 0 0 0 0 0.25 0"/>
<feBlend mode="normal" in2="BackgroundImageFix" result="effect1_dropShadow_142_17020"/>
<feColorMatrix in="SourceAlpha" type="matrix" values="0 0 0 0 0 0 0 0 0 0 0 0 0 0 0 0 0 0 127 0" result="hardAlpha"/>
<feOffset dy="4"/>
<feGaussianBlur stdDeviation="2"/>
<feComposite in2="hardAlpha" operator="out"/>
<feColorMatrix type="matrix" values="0 0 0 0 0 0 0 0 0 0 0 0 0 0 0 0 0 0 0.25 0"/>
<feBlend mode="normal" in2="effect1_dropShadow_142_17020" result="effect2_dropShadow_142_17020"/>
<feBlend mode="normal" in="SourceGraphic" in2="effect2_dropShadow_142_17020" result="shape"/>
</filter>
</defs>
</svg>
