<svg width="11" height="11" viewBox="0 0 11 11" fill="none" xmlns="http://www.w3.org/2000/svg">
<path d="M4.45989 0.709883C4.74989 -0.230117 6.07989 -0.230117 6.36989 0.709883L6.92989 2.54988C7.05989 2.96988 7.44989 3.25988 7.88989 3.25988H9.82989C10.7799 3.25988 11.1999 4.46988 10.4399 5.04988L8.76989 6.33988C8.43989 6.58988 8.30989 7.01988 8.42989 7.41988L9.03989 9.42988C9.32989 10.3599 8.23989 11.1099 7.46989 10.5099L6.02989 9.39988C5.66989 9.11988 5.16989 9.11988 4.80989 9.39988L3.35989 10.5199C2.58989 11.1199 1.50989 10.3699 1.78989 9.43988L2.39989 7.42988C2.51989 7.02988 2.37989 6.59988 2.04989 6.34988L0.389891 5.04988C-0.360109 4.45988 0.0498907 3.24988 0.999891 3.24988H2.93989C3.37989 3.24988 3.76989 2.95988 3.89989 2.53988L4.45989 0.709883Z" fill="#E28264"/>
<mask id="path-2-inside-1_560_289" fill="white">
<path d="M6.79086 2.06006L6.94086 2.55006C7.07086 2.97006 7.46086 3.26006 7.90086 3.26006H9.84086C10.7909 3.26006 11.2109 4.47006 10.4509 5.05006L8.77086 6.34006C8.44086 6.59006 8.31086 7.02006 8.43086 7.42006L9.04086 9.43006C9.33086 10.3601 8.24086 11.1101 7.47086 10.5101L6.63086 9.86006"/>
</mask>
<path d="M6.79086 2.06006L6.94086 2.55006C7.07086 2.97006 7.46086 3.26006 7.90086 3.26006H9.84086C10.7909 3.26006 11.2109 4.47006 10.4509 5.05006L8.77086 6.34006C8.44086 6.59006 8.31086 7.02006 8.43086 7.42006L9.04086 9.43006C9.33086 10.3601 8.24086 11.1101 7.47086 10.5101L6.63086 9.86006" fill="white"/>
<path d="M6.94086 2.55006L6.46276 2.69642L6.46322 2.6979L6.94086 2.55006ZM10.4509 5.05006L10.1475 4.65258L10.1463 4.65348L10.4509 5.05006ZM8.77086 6.34006L9.07279 6.73861L9.07537 6.73663L8.77086 6.34006ZM8.43086 7.42006L7.95194 7.56373L7.95241 7.56526L8.43086 7.42006ZM9.04086 9.43006L8.56239 9.57526L8.56353 9.5789L9.04086 9.43006ZM7.47086 10.5101L7.77819 10.1157L7.77685 10.1146L7.47086 10.5101ZM6.31276 2.20642L6.46276 2.69642L7.41896 2.4037L7.26896 1.9137L6.31276 2.20642ZM6.46322 2.6979C6.65748 3.32552 7.23982 3.76006 7.90086 3.76006V2.76006C7.6819 2.76006 7.48424 2.6146 7.4185 2.40222L6.46322 2.6979ZM7.90086 3.76006H9.84086V2.76006H7.90086V3.76006ZM9.84086 3.76006C10.3224 3.76006 10.5193 4.36885 10.1475 4.65258L10.7542 5.44753C11.9024 4.57126 11.2593 2.76006 9.84086 2.76006V3.76006ZM10.1463 4.65348L8.46635 5.94348L9.07537 6.73663L10.7554 5.44663L10.1463 4.65348ZM8.46893 5.94151C7.96372 6.32425 7.7752 6.97456 7.95195 7.56373L8.90977 7.27638C8.84652 7.06555 8.918 6.85587 9.07279 6.73861L8.46893 5.94151ZM7.95241 7.56526L8.56241 9.57526L9.51931 9.28486L8.90931 7.27486L7.95241 7.56526ZM8.56353 9.5789C8.70572 10.0349 8.16694 10.4186 7.77818 10.1157L7.16353 10.9045C8.31477 11.8015 9.956 10.6852 9.51819 9.28121L8.56353 9.5789ZM7.77685 10.1146L6.93685 9.46462L6.32487 10.2555L7.16487 10.9055L7.77685 10.1146Z" fill="#E28264" mask="url(#path-2-inside-1_560_289)"/>
</svg>
