<svg width="17" height="20" viewBox="0 0 17 20" fill="none" xmlns="http://www.w3.org/2000/svg">
<path d="M6.34791 15.4711L6.84372 14.9084L6.34791 15.4711ZM8.50002 4.8547L7.93171 5.34411C8.07419 5.50955 8.28169 5.6047 8.50002 5.6047C8.71836 5.6047 8.92585 5.50955 9.06833 5.34411L8.50002 4.8547ZM10.6521 15.4711L11.1479 16.0339L10.6521 15.4711ZM6.84372 14.9084C4.66437 12.9883 2.16669 11.1734 2.16669 7.73357H0.666687C0.666687 11.9934 3.86319 14.2815 5.85211 16.0339L6.84372 14.9084ZM2.16669 7.73357C2.16669 6.04471 3.02102 4.68382 4.10429 4.1304C4.63702 3.85824 5.2372 3.77117 5.86583 3.9291C6.49927 4.08824 7.21348 4.5101 7.93171 5.34411L9.06833 4.36528C8.19287 3.34871 7.22482 2.72391 6.23131 2.47431C5.233 2.22351 4.26156 2.36564 3.42187 2.79462C1.76033 3.64347 0.666687 5.5726 0.666687 7.73357H2.16669ZM5.85211 16.0339C6.21254 16.3514 6.61357 16.703 7.02402 16.9711C7.43176 17.2374 7.93327 17.4792 8.50002 17.4792V15.9792C8.35844 15.9792 8.15161 15.916 7.84424 15.7152C7.53958 15.5162 7.21872 15.2388 6.84372 14.9084L5.85211 16.0339ZM11.1479 16.0339C13.1368 14.2815 16.3334 11.9934 16.3334 7.73357H14.8334C14.8334 11.1734 12.3357 12.9883 10.1563 14.9084L11.1479 16.0339ZM16.3334 7.73357C16.3334 5.5726 15.2397 3.64347 13.5782 2.79462C12.7385 2.36564 11.767 2.22351 10.7687 2.47431C9.77522 2.72391 8.80717 3.34871 7.93171 4.36528L9.06833 5.34411C9.78656 4.5101 10.5008 4.08824 11.1342 3.9291C11.7628 3.77117 12.363 3.85824 12.8957 4.1304C13.979 4.68382 14.8334 6.04471 14.8334 7.73357H16.3334ZM10.1563 14.9084C9.78131 15.2388 9.46046 15.5162 9.1558 15.7152C8.84843 15.916 8.6416 15.9792 8.50002 15.9792V17.4792C9.06677 17.4792 9.56828 17.2374 9.97602 16.9711C10.3865 16.703 10.7875 16.3514 11.1479 16.0339L10.1563 14.9084Z" fill="#757575"/>
</svg>
