<svg width="80" height="80" viewBox="0 0 80 80" fill="none" xmlns="http://www.w3.org/2000/svg">
<path d="M7.00612 64.91C7.63961 64.7907 8.27616 64.5673 8.90966 64.5642C24.8663 64.5459 40.8229 64.5367 56.7796 64.5856C57.4926 64.5887 58.3189 64.9835 58.8881 65.4456C60.0297 66.3729 61.0947 67.4226 62.074 68.5213C63.0166 69.5801 64.0724 70.0331 65.4189 69.6597C58.729 63.0065 52.0085 56.3258 45.2053 49.5594C46.1816 48.6106 46.7753 48.0322 47.4455 47.3834C47.724 48.0598 47.9627 48.6504 48.2779 49.4186C50.7323 48.5127 53.1408 47.6222 55.684 46.6826C56.1706 48.17 56.6939 49.5379 57.0581 50.9457C57.3304 51.9923 57.8109 52.3779 58.7657 51.7934C60.4428 50.7682 61.5384 51.4323 62.7717 52.736C65.5719 55.6953 68.5466 58.4894 71.102 61.0081C72.2006 61.103 72.9566 61.1703 73.7155 61.2346C73.7155 61.5406 73.7155 61.8466 73.7155 62.1527C71.2795 64.5826 68.8435 67.0094 66.4074 69.4394C66.4778 69.5618 66.5482 69.6842 66.6186 69.8066C68.9842 69.8066 71.3499 69.8066 73.7155 69.8066C73.7155 71.5388 73.7155 73.2678 73.7155 75C51.476 75 29.2395 75 7 75C7.00612 71.6306 7.00612 68.2703 7.00612 64.91Z" fill="#00B6D5"/>
<path d="M37.9161 4C37.9161 5.52711 37.965 7.05728 37.9008 8.58134C37.8518 9.70754 38.3353 9.97685 39.3667 9.90034C42.0506 9.70142 44.7406 9.57901 47.703 9.40763C47.703 11.9538 47.7673 14.3378 47.6786 16.7157C47.6296 18.0439 48.006 18.607 49.3985 18.402C50.491 18.2428 51.608 18.2367 52.8169 18.1541C52.8169 20.0699 52.8169 21.8755 52.8169 23.8249C52.1987 23.8249 51.6509 23.8249 51.1031 23.8249C37.7447 23.8249 24.3863 23.8249 11.0279 23.8249C10.7739 23.8249 10.5168 23.831 10.2628 23.8219C9.19778 23.7912 8.15114 23.626 7.83593 22.408C7.52071 21.1961 8.45718 20.7217 9.32019 20.2321C18.3176 15.1458 27.312 10.0503 36.3002 4.94871C36.7654 4.68246 37.1755 4.31828 37.61 4C37.711 4 37.8151 4 37.9161 4Z" fill="#00B6D5"/>
<path d="M14.9596 28.2747C14.5586 27.8034 14.1577 27.3351 13.7568 26.8638C14.3138 26.5762 14.8647 26.0528 15.4308 26.0406C18.6381 25.961 21.8484 25.9641 25.0556 26.0345C25.6585 26.0467 26.2522 26.4874 26.849 26.7292C26.4542 27.1362 26.038 27.5218 25.6769 27.9564C25.4749 28.1982 25.2454 28.5225 25.2423 28.8072C25.2178 36.7977 25.2239 44.7883 25.2239 52.8645C25.5851 52.9563 25.9431 52.9441 26.1329 53.1155C26.4358 53.394 26.8888 53.8744 26.8092 54.1223C26.6868 54.5049 26.1757 55.0282 25.8238 55.0343C22.1575 55.1016 18.4912 55.1016 14.8249 55.0374C14.4638 55.0313 14.1149 54.4712 13.7599 54.1652C14.2036 53.6541 14.6443 53.143 15.3176 52.3688C15.3176 44.5894 15.3176 36.3938 15.3176 28.2012C15.1983 28.2288 15.0789 28.2502 14.9596 28.2747Z" fill="#00B6D5"/>
<path d="M35.4126 52.4116C35.4126 44.5343 35.4126 36.3325 35.4126 28.0359C35.0913 27.9778 34.724 28.0206 34.5404 27.8554C34.2344 27.5861 33.8365 27.1607 33.8702 26.8424C33.9008 26.5364 34.4302 26.0498 34.7485 26.0467C38.4699 25.9886 42.1913 25.9855 45.9126 26.0467C46.2554 26.0528 46.589 26.6129 46.9287 26.9159C46.4972 27.3657 46.0687 27.8187 45.6372 28.2685C45.5148 28.1981 45.3893 28.1308 45.2669 28.0604C45.2669 29.6304 45.2669 31.2034 45.2669 32.7734C45.2669 36.5468 45.2363 40.3202 45.2822 44.0936C45.3006 45.5931 45.2577 46.9856 44.1744 48.2128C43.8469 48.5831 43.6664 49.5808 43.9112 49.8623C44.8354 50.9273 44.7987 52.7023 46.4268 53.2563C46.6686 53.3389 46.944 53.9877 46.8491 54.2356C46.7145 54.5844 46.2493 55.0343 45.9188 55.0404C42.2494 55.0986 38.577 55.1108 34.9076 55.0374C34.5312 55.0313 34.1701 54.3886 33.7998 54.0428C34.2466 53.5868 34.6965 53.1338 35.4126 52.4116Z" fill="#00B6D5"/>
<path d="M55.3994 62.3485C54.9098 62.3485 54.4232 62.3485 53.9335 62.3485C40.1804 62.3485 26.4302 62.3485 12.677 62.3485C10.3512 62.3485 10.3451 62.3363 10.342 60.0869C10.3389 57.2439 10.3389 57.2439 13.1238 57.2439C25.1938 57.2439 37.2669 57.2561 49.3369 57.2225C50.3927 57.2194 51.1333 57.5132 51.8586 58.2813C53.0613 59.5544 54.3987 60.7021 55.6779 61.9048C55.5861 62.0517 55.4943 62.1986 55.3994 62.3485Z" fill="#00B6D5"/>
</svg>
