<svg width="20" height="20" viewBox="0 0 20 20" fill="none" xmlns="http://www.w3.org/2000/svg">
<rect width="20" height="20" fill="#ECE8DD"/>
<path d="M14.5868 4.93878C14.0554 4.93878 13.6211 5.37312 13.6211 5.9045C13.6211 6.43588 14.0554 6.87022 14.5868 6.87022C15.1182 6.87022 15.5525 6.43588 15.5525 5.9045C15.5525 5.37312 15.1228 4.93878 14.5868 4.93878Z" fill="#969696"/>
<path d="M10.2984 6.17712C8.06202 6.17712 6.24609 7.99767 6.24609 10.2295C6.24609 12.4659 8.06664 14.2818 10.2984 14.2818C12.5348 14.2818 14.3508 12.4612 14.3508 10.2295C14.3508 7.99767 12.5348 6.17712 10.2984 6.17712ZM10.2984 12.8263C8.86602 12.8263 7.70161 11.6619 7.70161 10.2295C7.70161 8.79705 8.86602 7.63264 10.2984 7.63264C11.7308 7.63264 12.8952 8.79705 12.8952 10.2295C12.8952 11.6619 11.7308 12.8263 10.2984 12.8263Z" fill="#969696"/>
<path d="M13.5147 18.4635H6.94412C4.21792 18.4635 2 16.2455 2 13.5193V6.94412C2 4.21792 4.21792 2 6.94412 2H13.5147C16.2409 2 18.4589 4.21792 18.4589 6.94412V13.5193C18.4635 16.2455 16.2409 18.4635 13.5147 18.4635ZM6.94412 3.54793C5.07275 3.54793 3.54793 5.07275 3.54793 6.94412V13.5193C3.54793 15.3907 5.07275 16.9155 6.94412 16.9155H13.5147C15.3861 16.9155 16.9109 15.3907 16.9109 13.5193V6.94412C16.9109 5.07275 15.3861 3.54793 13.5147 3.54793H6.94412Z" fill="#969696"/>
</svg>
