<svg width="20" height="21" viewBox="0 0 20 21" fill="none" xmlns="http://www.w3.org/2000/svg">
<path d="M14.5868 5.43872C14.0554 5.43872 13.621 5.87306 13.621 6.40444C13.621 6.93582 14.0554 7.37016 14.5868 7.37016C15.1181 7.37016 15.5525 6.93582 15.5525 6.40444C15.5525 5.87306 15.1228 5.43872 14.5868 5.43872Z" fill="#969696"/>
<path d="M10.2984 6.67725C8.06202 6.67725 6.24609 8.49779 6.24609 10.7296C6.24609 12.966 8.06664 14.7819 10.2984 14.7819C12.5348 14.7819 14.3508 12.9614 14.3508 10.7296C14.3508 8.49779 12.5348 6.67725 10.2984 6.67725ZM10.2984 13.3264C8.86602 13.3264 7.70161 12.162 7.70161 10.7296C7.70161 9.29717 8.86602 8.13276 10.2984 8.13276C11.7308 8.13276 12.8952 9.29717 12.8952 10.7296C12.8952 12.162 11.7308 13.3264 10.2984 13.3264Z" fill="#969696"/>
<path d="M13.5147 18.9635H6.94412C4.21792 18.9635 2 16.7455 2 14.0193V7.44412C2 4.71792 4.21792 2.5 6.94412 2.5H13.5147C16.2409 2.5 18.4589 4.71792 18.4589 7.44412V14.0193C18.4635 16.7455 16.2409 18.9635 13.5147 18.9635ZM6.94412 4.04793C5.07275 4.04793 3.54793 5.57275 3.54793 7.44412V14.0193C3.54793 15.8907 5.07275 17.4155 6.94412 17.4155H13.5147C15.3861 17.4155 16.9109 15.8907 16.9109 14.0193V7.44412C16.9109 5.57275 15.3861 4.04793 13.5147 4.04793H6.94412Z" fill="#969696"/>
</svg>
