<svg width="80" height="80" viewBox="0 0 80 80" fill="none" xmlns="http://www.w3.org/2000/svg">
<path d="M5 40.7773C5 40.5929 5 40.4071 5 40.2227C5.05547 40.1866 5.11926 40.1589 5.16363 40.1131C8.39885 36.8793 11.6368 33.6496 14.8513 30.395C15.0759 30.1676 15.2271 29.7613 15.2284 29.4368C15.252 25.0478 15.2437 20.6574 15.2451 16.2685C15.2451 15.2992 15.2978 15.2465 16.2712 15.2451C19.9904 15.2437 23.7152 15.1355 27.4288 15.2895C29.2912 15.3671 30.743 14.9858 31.8344 13.4465C32.0452 13.1497 32.3516 12.9209 32.6123 12.6588C35.15 10.1073 37.6863 7.55295 40.2227 5C40.4071 5 40.5929 5 40.7773 5C40.812 5.05547 40.8384 5.12064 40.8841 5.16641C44.0694 8.3517 47.263 11.5287 50.4358 14.7264C50.8047 15.0981 51.1666 15.2603 51.6964 15.2576C56.0396 15.2368 60.3828 15.2437 64.726 15.2465C65.6981 15.2465 65.7521 15.3019 65.7521 16.2699C65.7535 20.0362 65.852 23.8053 65.7092 27.5661C65.6412 29.3563 66.0323 30.7417 67.5008 31.7872C67.7601 31.9717 67.9612 32.2407 68.19 32.4681C70.7915 35.053 73.3944 37.6378 75.9972 40.224C75.9972 40.4085 75.9972 40.5943 75.9972 40.7787C75.957 40.7954 75.9071 40.8023 75.878 40.8314C72.6109 44.0985 69.3396 47.3629 66.0933 50.6508C65.8853 50.8616 65.7674 51.2526 65.766 51.5605C65.7452 55.9508 65.7535 60.3412 65.7521 64.7315C65.7521 65.7022 65.6995 65.7508 64.7246 65.7508C60.38 65.7521 56.0368 65.7605 51.6922 65.7397C51.1625 65.7369 50.7964 65.8964 50.4317 66.2736C49.228 67.5188 47.9841 68.7267 46.7624 69.9553C44.7642 71.9674 42.7701 73.9851 40.7746 76.0014C40.5901 76.0014 40.4043 76.0014 40.2199 76.0014C40.17 75.9279 40.1311 75.8447 40.0701 75.7837C36.9167 72.6317 33.7522 69.4894 30.6141 66.3221C30.2092 65.913 29.8167 65.7341 29.2357 65.7383C24.9147 65.7632 20.5937 65.7521 16.274 65.7508C15.2992 65.7508 15.2451 65.6967 15.2451 64.7315C15.2437 60.3647 15.2368 55.998 15.2548 51.6312C15.2562 51.1514 15.1189 50.8172 14.775 50.4871C13.7252 49.479 12.7129 48.432 11.6798 47.4072C9.45691 45.1927 7.22707 42.9864 5 40.7773ZM40.4667 65.1198C40.7038 64.8924 40.8716 64.7385 41.0325 64.5776C43.1251 62.4878 45.2093 60.3897 47.3213 58.3193C47.5515 58.0947 47.9467 57.9255 48.267 57.9213C51.1555 57.8881 54.0441 57.8964 56.9312 57.8936C57.2252 57.8936 57.5178 57.8936 57.8978 57.8936C57.8978 57.54 57.8978 57.2696 57.8978 57.0006C57.8992 54.0885 57.8895 51.1777 57.9213 48.267C57.9255 47.9453 58.0947 47.5487 58.3207 47.3185C60.3911 45.2065 62.4906 43.1237 64.5804 41.0325C64.7523 40.8605 64.916 40.6775 65.1087 40.4723C62.8137 38.1828 60.563 35.9571 58.3457 33.7009C58.1058 33.4569 57.9255 33.0353 57.9213 32.6942C57.8867 29.7834 57.9005 26.8713 57.8992 23.9606C57.8992 23.6944 57.8992 23.4267 57.8992 23.0884C57.5164 23.0884 57.2432 23.0884 56.9701 23.0884C54.0579 23.087 51.1472 23.0967 48.2365 23.0689C47.9356 23.0662 47.5626 22.9122 47.3462 22.7015C45.4145 20.81 43.5092 18.8921 41.6024 16.9757C41.2488 16.6193 40.9243 16.2352 40.5666 15.8428C40.2948 16.1021 40.127 16.256 39.9661 16.4169C37.8736 18.5066 35.7907 20.6061 33.6773 22.6751C33.4485 22.8998 33.0505 23.0634 32.7302 23.0662C29.8195 23.0967 26.9074 23.0856 23.9967 23.087C23.7249 23.087 23.4545 23.087 23.1008 23.087C23.1008 23.4489 23.1008 23.7221 23.1008 23.9939C23.0995 26.8824 23.1147 29.771 23.0787 32.6581C23.0745 33.02 22.8831 33.4666 22.628 33.7273C20.5618 35.842 18.4581 37.9221 16.3683 40.0133C16.2116 40.17 16.066 40.335 15.8857 40.5263C18.1849 42.8158 20.4356 45.0415 22.6543 47.2963C22.8942 47.5404 23.0745 47.9619 23.0787 48.3031C23.1133 51.2138 23.1008 54.1259 23.1022 57.0366C23.1022 57.3029 23.1022 57.5691 23.1022 57.8936C23.5113 57.8936 23.8095 57.8936 24.1062 57.8936C26.9712 57.8964 29.8361 57.8839 32.7011 57.92C33.0408 57.9241 33.461 58.1058 33.7037 58.3457C35.9557 60.5672 38.1786 62.8206 40.4667 65.1198Z" fill="#FF5347"/>
<path d="M40.5129 19.9627C42.3614 21.8223 44.1628 23.6098 45.9281 25.4319C46.3164 25.8327 46.7019 25.9977 47.2538 25.9922C49.6098 25.9672 51.9672 25.9977 54.3233 25.97C54.871 25.963 55.0333 26.1211 55.0263 26.6703C54.9986 29.0499 55.0305 31.4295 55.0028 33.8091C54.9972 34.3194 55.1595 34.6675 55.5158 35.0155C57.1175 36.5825 58.6914 38.1786 60.2806 39.7581C60.508 39.9828 60.7687 40.1741 61.1279 40.4778C59.8674 41.7051 58.7108 42.8242 57.5613 43.9529C56.836 44.6643 56.0983 45.3674 55.4188 46.1218C55.1997 46.3645 55.036 46.7555 55.0319 47.08C55 49.5054 55 51.9321 55.0249 54.3575C55.0305 54.8817 54.8655 55.0245 54.3538 55.019C51.9742 54.9954 49.5946 55.0259 47.2149 54.9968C46.6797 54.9898 46.315 55.166 45.9503 55.5376C44.1711 57.35 42.367 59.1389 40.5088 60.9985C39.9388 60.4369 39.3828 59.8961 38.835 59.3469C37.544 58.0559 36.2474 56.7718 34.9771 55.4627C34.6416 55.1174 34.2949 54.9954 33.8192 54.9995C31.4396 55.0217 29.06 54.9926 26.6804 55.019C26.1396 55.0245 25.9676 54.8761 25.9746 54.3214C26.0037 51.9418 25.976 49.5622 25.9954 47.1826C25.9995 46.7084 25.8733 46.3645 25.5294 46.0261C23.864 44.3911 22.2249 42.7312 20.5775 41.0797C20.4013 40.9022 20.2322 40.7177 19.959 40.4307C20.5802 39.8413 21.1876 39.2825 21.7742 38.7028C23.007 37.4853 24.2162 36.2442 25.4601 35.0377C25.8345 34.6744 26.0051 34.3069 25.9981 33.7717C25.969 31.392 25.9995 29.0124 25.9746 26.6328C25.969 26.1128 26.1257 25.963 26.643 25.9686C29.0448 25.9935 31.4479 25.9686 33.8511 25.9894C34.3309 25.9935 34.6651 25.8424 34.9993 25.5027C36.7951 23.675 38.6131 21.8667 40.5129 19.9627ZM47.0042 43.3469C47.0471 43.2832 47.0901 43.218 47.1317 43.1542C48.2314 43.1542 49.3311 43.1584 50.4294 43.15C50.6304 43.1486 50.8925 43.1611 51.0201 43.0474C51.9478 42.2265 52.8478 41.375 53.7963 40.4959C53.0003 39.7581 52.2446 39.1133 51.5581 38.4019C51.1352 37.9637 50.6914 37.8028 50.0952 37.8292C49.1009 37.8722 48.1038 37.8403 47.1082 37.8403C47.0832 37.7765 47.0582 37.7127 47.0347 37.6489C47.814 36.8959 48.5961 36.1457 49.3699 35.3886C49.5155 35.2457 49.7374 35.0738 49.7415 34.9102C49.7721 33.6524 49.7582 32.3933 49.7582 31.2007C48.8832 31.2007 47.9596 31.2437 47.043 31.1868C46.2858 31.141 45.7381 31.3837 45.2403 31.9551C44.6315 32.6526 43.934 33.2738 43.1532 34.049C43.1532 32.7677 43.156 31.6874 43.1505 30.6072C43.1491 30.4033 43.1851 30.1329 43.0742 30.0067C42.2422 29.0637 41.3782 28.1485 40.4949 27.1958C39.6809 28.075 38.9251 28.8543 38.2207 29.6767C38.0196 29.9124 37.8712 30.2702 37.8601 30.578C37.8171 31.6735 37.8435 32.7704 37.8435 33.8673C37.7866 33.8965 37.7298 33.9256 37.6743 33.9547C36.9075 33.167 36.1462 32.3752 35.3696 31.5987C35.2143 31.4434 35.0049 31.2451 34.8163 31.2395C33.6001 31.2076 32.384 31.2229 31.0874 31.2229C31.1137 31.7082 31.2288 32.2671 31.1554 32.7996C30.9279 34.4595 31.5783 35.677 32.8721 36.6519C33.2729 36.9542 33.5904 37.366 34.0564 37.8403C32.757 37.8403 31.6712 37.8334 30.5868 37.8458C30.3663 37.8486 30.0834 37.8514 29.9392 37.979C29.0281 38.7833 28.1476 39.6222 27.2074 40.4959C27.9562 41.192 28.6884 41.7952 29.3221 42.4872C29.8269 43.0377 30.3829 43.2 31.0957 43.1653C32.0248 43.1195 32.9581 43.1542 33.8886 43.1542C33.1647 44.093 32.3715 44.8612 31.5894 45.6406C31.4479 45.782 31.251 45.9651 31.2483 46.1315C31.2191 47.367 31.233 48.604 31.233 49.7869C32.2009 49.7869 33.2132 49.7591 34.2242 49.798C34.7802 49.8188 35.1782 49.6385 35.5526 49.2363C36.2488 48.4875 36.992 47.7831 37.8463 46.9288C37.8463 48.2199 37.8435 49.2987 37.849 50.3776C37.8504 50.5815 37.8102 50.8546 37.9212 50.9795C38.7546 51.9224 39.6213 52.8363 40.5046 53.7889C41.3158 52.9153 42.0744 52.1374 42.7802 51.315C42.9827 51.0807 43.1283 50.7215 43.1408 50.4137C43.1838 49.3195 43.1574 48.2227 43.1574 47.1271C43.2212 47.0925 43.2836 47.0578 43.3474 47.0231C44.1115 47.815 44.8714 48.6109 45.641 49.3958C45.7811 49.5386 45.96 49.7439 46.1264 49.748C47.3647 49.7772 48.603 49.7647 49.7956 49.7647C49.7956 48.83 49.7693 47.8427 49.8053 46.8567C49.8261 46.2604 49.6653 45.8084 49.2021 45.4062C48.4408 44.7517 47.7322 44.0375 47.0042 43.3469Z" fill="#FF5347"/>
<path d="M34.4055 40.4293C33.8286 38.5947 34.7966 37.4423 35.9836 36.1651C37.3246 34.7229 38.7057 34.1849 40.6652 34.2223C42.393 34.2542 43.5648 34.7645 44.8087 35.9502C46.2495 37.323 46.8111 38.7139 46.7695 40.6942C46.7334 42.3943 46.2342 43.5522 45.0708 44.7794C43.6854 46.2396 42.2765 46.8234 40.2616 46.7666C38.5879 46.7194 37.2594 46.4338 36.2845 45.0374C36.2457 44.9819 36.193 44.932 36.1389 44.8904C34.651 43.7643 33.8106 42.3721 34.4055 40.4293Z" fill="#FF5347"/>
</svg>
