<svg width="80" height="80" viewBox="0 0 80 80" fill="none" xmlns="http://www.w3.org/2000/svg">
<path d="M20.7723 7.36945C20.7723 12.2529 20.7723 17.0855 20.7723 21.9182C20.7098 21.9243 20.646 21.9289 20.5835 21.9351C19.7356 19.5018 18.6794 17.1795 18.8383 14.3656C18.988 11.7059 18.9008 9.02604 18.9177 6.35547C18.9203 5.99949 18.9177 5.64352 18.9177 5.17043C20.1511 5.10879 21.3154 5.00862 22.4798 5.00092C27.4328 4.97318 32.3154 5.56955 37.021 7.52201C39.0957 8.38344 41.0714 9.4868 42.659 11.3406C46.5167 7.64529 51.0907 6.51111 55.808 5.85618C59.0523 5.4062 62.3017 5.35381 65.5551 5.67588C65.8729 5.7067 66.1894 5.77142 66.5593 5.82844C66.4329 19.9688 66.3066 34.0505 66.1803 48.2356C65.6202 48.194 65.1305 48.1554 64.6421 48.12C59.2789 47.7332 53.9742 48.0876 48.7842 49.886C46.4282 50.7027 44.2388 51.9001 42.4559 53.7108C41.0506 52.7214 39.7703 51.6535 38.3742 50.8707C35.2641 49.1293 31.9143 48.385 28.5242 47.8734C28.2845 47.838 27.9876 47.7532 27.8404 47.5591C27.0512 46.522 26.0692 46.0365 24.9152 45.9302C24.7277 45.9133 24.5532 45.6991 24.3734 45.5773C24.5649 45.4833 24.7603 45.2984 24.9491 45.3061C30.1795 45.5157 35.2523 46.5805 40.023 49.2526C40.1402 49.3189 40.26 49.379 40.3812 49.4298C40.415 49.4437 40.4606 49.416 40.6312 49.3805C40.6312 47.9289 40.6208 46.4511 40.6325 44.9732C40.7211 34.5745 40.8031 24.1742 40.9243 13.7754C40.936 12.8031 40.6885 12.2098 39.9917 11.712C37.3505 9.82274 34.4774 8.64079 31.4533 8.16924C28.3418 7.68382 25.1926 7.53896 22.0578 7.2662C21.6762 7.23384 21.2868 7.32476 20.7723 7.36945ZM64.2462 45.79C64.2644 45.4648 64.2892 45.2152 64.2905 44.9655C64.3947 32.9271 64.4898 20.8903 64.6174 8.85191C64.6265 8.02592 64.409 7.79785 63.7604 7.7994C60.4185 7.80248 57.0765 7.77474 53.7685 8.44816C50.7612 9.05994 47.8517 10.0138 45.2169 11.9339C44.6465 12.35 44.4407 12.8524 44.4342 13.6275C44.3443 25.3284 44.2362 37.0309 44.132 48.7318C44.1294 48.9752 44.132 49.2187 44.132 49.6086C50.5867 46.0535 57.3331 45.4556 64.2462 45.79Z" fill="#38B3D1"/>
<path d="M16.5726 55.7757C17.7565 55.7757 19.0146 55.785 20.2727 55.7711C20.8301 55.7649 21.2364 55.4583 21.3719 54.791C21.4917 54.2024 21.325 53.7015 20.8718 53.4195C20.6556 53.2855 20.3743 53.2531 20.1216 53.25C18.9716 53.2331 17.8216 53.2485 16.6716 53.2392C16.3955 53.2377 16.1193 53.1853 15.7703 53.1483C15.7703 52.2761 15.7703 51.4594 15.7703 50.6442C15.7703 50.1403 16.0672 50.1757 16.3603 50.1757C18.181 50.1742 20.0018 50.1664 21.8225 50.1587C22.7342 50.1557 23.6459 50.1649 24.5562 50.1356C25.0277 50.1202 25.2361 50.3206 25.2061 50.8953C25.1762 51.4578 25.2192 52.028 25.1736 52.5874C25.1553 52.8124 24.9899 53.0235 24.8792 53.2331C24.848 53.2916 24.7646 53.3055 24.723 53.3594C24.3817 53.8032 24.607 56.4122 25.0251 56.7312C27.7028 58.7715 29.3334 61.7271 30.3206 65.2345C30.4926 65.8478 30.7361 66.3055 31.2232 66.6522C32.0164 67.2147 32.5178 68.0776 32.721 69.161C33.0791 71.0749 33.1247 72.9364 32.0307 74.59C31.4225 75.5099 30.6593 76.0031 29.6291 76C23.6836 75.9753 17.7395 75.9877 11.7941 75.9877C9.65687 75.9877 8.56807 74.9459 8.1513 72.4372C7.94422 71.1889 7.91296 69.9099 8.34927 68.7249C8.5837 68.0869 8.92883 67.4119 9.38337 67.0035C10.1348 66.3301 10.5751 65.5103 10.8876 64.4871C11.8644 61.2895 13.4559 58.6297 15.894 56.7373C16.1454 56.5416 16.2991 56.1733 16.5726 55.7757Z" fill="#38B3D1"/>
<path d="M14.6112 22.3034C15.1074 21.6362 15.5854 20.992 16.1272 20.2631C16.2822 20.6946 16.4124 21.0614 16.5452 21.4281C18.4207 26.5612 20.2948 31.6959 22.1716 36.8275C23.1562 39.5181 22.6287 42.0546 20.6751 43.8129C20.373 44.0841 20.3144 44.3091 20.4212 44.7051C20.6973 45.7283 20.9486 46.7608 21.2417 47.9135C20.5123 47.9566 19.8377 47.9952 19.1188 48.0368C18.857 46.9319 18.6382 45.8609 18.3373 44.8238C18.2423 44.4955 17.9766 44.1426 17.7122 43.9916C16.5635 43.3336 15.3431 42.8359 14.2361 42.0977C13.6214 41.6878 13.1473 40.9497 12.6706 40.2963C12.4635 40.0127 12.4075 39.5751 12.2552 39.1282C13.4833 38.7938 14.6776 38.7337 15.726 38.1111C15.7221 38.0294 15.7182 37.9493 15.7143 37.8676C15.4799 37.8014 15.2481 37.7166 15.011 37.6719C14.1983 37.5224 13.383 37.4023 12.5729 37.2404C12.1028 37.1464 11.8501 36.8013 11.7212 36.2326C10.8147 32.246 9.89262 28.2656 8.9588 24.2898C8.53552 22.4883 7.99633 20.7192 7.65771 18.8962C7.37639 17.383 7.31127 15.8142 7.15108 14.2747C7.78274 14.2008 8.3076 14.1391 9.01741 14.0559C8.44566 13.4811 8.02498 13.065 7.61082 12.6413C7.19406 12.2144 6.99479 11.6951 7.00651 11.0186C7.02996 9.66403 7.0013 8.30485 7 6.94722C7 6.79466 7.0013 6.62207 7.05861 6.49416C7.24355 6.08271 7.41416 5.41083 7.66422 5.36152C7.99633 5.29526 8.53552 5.605 8.74781 5.95481C10.9658 9.61471 13.6357 12.9109 15.1569 17.1364C15.5163 18.1334 15.5216 18.9687 14.899 19.8162C14.1814 20.7932 14.1332 21.3372 14.6112 22.3034Z" fill="#38B3D1"/>
<path d="M68.6097 53.9712C68.6097 53.4303 68.6058 52.8247 68.6097 52.2175C68.7113 38.5334 68.8155 24.8492 68.9106 11.165C68.9158 10.3513 69.0551 9.63166 69.6594 9.14933C70.1687 8.74404 70.7209 8.69935 71.2679 9.00755C71.8657 9.34504 72.2017 9.93833 72.2082 10.7212C72.2186 11.9786 72.1835 13.2361 72.1717 14.4951C72.0584 27.6137 71.9464 40.7324 71.8279 53.8526C71.8227 54.415 71.8019 54.9867 71.7159 55.5384C71.4971 56.9577 70.6206 57.628 69.468 57.1503C68.3049 56.668 67.207 55.9684 66.0479 55.4722C60.4789 53.0913 54.9229 53.0636 49.4098 55.7388C48.5489 56.1564 47.7375 56.7127 46.8832 57.1534C45.9585 57.6311 45.0142 57.8207 44.0765 57.1503C43.3211 56.611 43.269 56.1949 43.9124 55.4937C44.9361 54.375 46.1682 53.6892 47.4614 53.1329C52.8638 50.8091 58.3416 50.8476 63.8599 52.4317C65.4162 52.8771 66.9478 53.4288 68.6097 53.9712Z" fill="#38B3D1"/>
<path d="M28.7334 50.8615C30.2624 51.125 31.6807 51.2929 33.0704 51.6289C35.1346 52.1266 37.1481 52.854 38.9741 54.1376C39.581 54.5645 40.1241 55.1331 40.6581 55.6879C41.0566 56.1024 40.9694 56.5401 40.5539 56.9038C39.8571 57.514 39.0744 57.6542 38.2708 57.3537C37.6561 57.1241 37.0492 56.819 36.4878 56.4461C34.249 54.9544 31.8461 54.0575 29.3169 53.6245C28.8337 53.5413 28.6956 53.3348 28.7256 52.8C28.7581 52.2391 28.7334 51.6766 28.7334 50.8615Z" fill="#38B3D1"/>
<path d="M27.2246 15.5291C26.3012 15.5291 25.4989 15.5291 24.6966 15.5291C24.289 15.5291 23.9399 15.4012 23.91 14.8403C23.8813 14.2824 24.2069 14.0744 24.6159 14.042C28.9841 13.7045 33.2442 14.0667 37.1384 16.7804C37.9472 17.3444 38.1855 17.7312 37.8951 18.1935C37.447 18.907 36.9521 18.4385 36.5184 18.1535C33.5867 16.2303 30.4779 15.2101 27.2246 15.5291Z" fill="#38B3D1"/>
<path d="M27.3484 21.8488C26.3651 21.8488 25.542 21.855 24.7176 21.8457C24.3139 21.8411 23.9792 21.6993 23.9661 21.1215C23.9544 20.5806 24.2774 20.3972 24.6408 20.3694C28.9374 20.0412 33.1415 20.3525 36.9966 22.9722C37.1099 23.0493 37.2219 23.1263 37.3339 23.2034C37.7533 23.4946 38.2612 23.8074 37.9564 24.4932C37.6387 25.2082 37.1242 24.8353 36.7166 24.5656C33.7536 22.5993 30.6122 21.5283 27.3484 21.8488Z" fill="#38B3D1"/>
<path d="M27.2652 26.6722C30.8481 26.5227 34.2512 27.3209 37.3666 29.5138C37.515 29.6186 37.7221 29.6941 37.7924 29.8513C37.9188 30.1364 38.1063 30.5941 38.0073 30.7574C37.8667 30.9886 37.4695 31.1519 37.2181 31.0995C36.8482 31.024 36.4992 30.7559 36.1592 30.5309C33.5167 28.7818 30.6788 28.0252 27.6624 28.1284C26.7299 28.1608 25.7974 28.1531 24.8636 28.1716C24.4338 28.1793 24.034 28.0714 24.0144 27.4797C23.9936 26.8448 24.4064 26.683 24.8584 26.6768C25.6607 26.6645 26.4629 26.6722 27.2652 26.6722Z" fill="#38B3D1"/>
<path d="M58.3473 15.2409C55.0965 14.9867 52.032 15.8173 49.1784 17.7266C48.9896 17.853 48.7942 17.9655 48.5976 18.0718C48.2095 18.2814 47.7901 18.4925 47.5166 17.91C47.2483 17.3383 47.5713 16.9792 47.9594 16.7388C48.8034 16.2149 49.6408 15.6647 50.5173 15.2317C53.0856 13.965 55.7907 13.6152 58.5479 13.6722C59.285 13.6876 60.0222 13.7184 60.7593 13.7662C61.1839 13.7939 61.5551 13.9712 61.516 14.5829C61.4809 15.1546 61.1058 15.2394 60.7098 15.2409C59.9297 15.2425 59.1483 15.2409 58.3473 15.2409Z" fill="#38B3D1"/>
<path d="M58.1962 21.5637C54.8959 21.2601 51.7416 22.2741 48.776 24.242C48.3618 24.5163 47.8279 24.9817 47.4775 24.2297C47.1115 23.4437 47.7458 23.1602 48.1795 22.8597C50.7582 21.0768 53.5597 20.1799 56.5318 20.0443C57.7873 19.9873 59.0454 20.0412 60.3022 20.052C60.4962 20.0535 60.7359 20.0212 60.8726 20.1383C61.1019 20.3355 61.266 20.6406 61.4574 20.8995C61.2321 21.1199 61.0198 21.5082 60.7802 21.5313C59.9636 21.613 59.1365 21.5637 58.1962 21.5637Z" fill="#38B3D1"/>
<path d="M58.3432 27.8849C55.0443 27.6553 51.9888 28.412 49.1574 30.3259C48.9139 30.4908 48.6547 30.6264 48.3981 30.762C48.0139 30.967 47.6284 31.0671 47.3901 30.5155C47.1713 30.0085 47.4253 29.6664 47.7704 29.4429C48.5297 28.9529 49.289 28.4505 50.0795 28.036C53.174 26.4148 56.4508 26.196 59.7693 26.3486C60.0728 26.3624 60.375 26.384 60.6771 26.4148C61.0835 26.4549 61.4273 26.6383 61.4078 27.19C61.3882 27.7401 61.0405 27.8865 60.6263 27.8849C59.8449 27.8819 59.0647 27.8849 58.3432 27.8849Z" fill="#38B3D1"/>
</svg>
