<svg width="92" height="62" viewBox="0 0 92 62" fill="none" xmlns="http://www.w3.org/2000/svg">
<path d="M10.7134 30.5974C10.6522 30.8759 10.4466 30.9428 10.2947 31.0616C9.55924 31.6355 8.80341 32.1851 8.08462 32.7812C6.66001 33.966 5.38176 35.2937 4.29432 36.7997C3.16426 38.367 2.31024 40.0661 1.8786 41.9621C1.68593 42.8107 1.55996 43.6687 1.54514 44.5396C1.49883 47.325 3.8812 49.4717 6.64705 49.1746C8.41252 48.9852 9.92975 48.2517 11.2506 47.1041C12.7567 45.7967 13.8534 44.196 14.5167 42.3038C14.8649 41.3103 14.9409 40.3075 14.6537 39.2862C14.3888 38.3447 14.1276 37.4014 13.859 36.4617C13.6033 35.563 13.3421 34.6679 13.0846 33.7691C12.9401 33.264 12.9605 32.7645 13.0957 32.2557C13.3477 31.3068 13.7219 30.4024 14.0924 29.4981C14.1221 29.4257 14.1999 29.3755 14.2666 29.2994C14.7501 31.2102 15.2317 33.0839 15.6967 34.9594C16.0654 36.4432 16.1247 37.9455 15.982 39.4682C15.832 41.0652 15.6319 42.6547 15.2595 44.2146C14.7834 46.2109 13.9479 48.0437 12.6067 49.6147C11.3803 51.0501 9.89455 52.1012 8.05868 52.6193C7.3047 52.8328 6.53589 52.9164 5.75412 52.9145C5.62444 52.9145 5.49476 52.9145 5.37064 52.9145C5.33545 53.1114 5.48735 53.1634 5.58183 53.2414C6.9064 54.3203 8.39399 55.1002 10.0076 55.6461C11.8101 56.2552 13.6608 56.5691 15.5652 56.5951C20.4503 56.6638 25.0095 55.4437 29.3055 53.1559C32.3455 51.5367 35.0836 49.4958 37.6345 47.1932C40.3337 44.7568 42.7513 42.0587 44.9984 39.2045C45.9191 38.0346 46.7861 36.8201 47.679 35.6261C47.768 35.5072 47.868 35.3958 47.9958 35.2398C48.0699 35.3531 48.1422 35.4163 48.1514 35.4887C48.17 35.6409 48.1625 35.7988 48.1514 35.9548C48.0366 37.5555 47.7791 39.1358 47.5012 40.7142C47.2159 42.3353 46.9751 43.9639 46.7157 45.5888C46.6768 45.8302 46.6472 46.0734 46.6027 46.3148C46.5619 46.5321 46.5212 46.7531 46.3156 46.8831C46.1711 46.8868 46.1025 46.7958 46.084 46.6881C46.0377 46.4263 45.984 46.1607 45.984 45.8952C45.9821 45.028 46.0025 44.1608 46.0136 43.2917C46.0154 43.0744 46.0136 42.8572 46.0136 42.6455C45.8209 42.5879 45.7728 42.7439 45.6987 42.8386C44.8613 43.8785 44.048 44.937 43.1922 45.9602C40.5264 49.143 37.6012 52.0585 34.2814 54.5598C31.586 56.5895 28.6942 58.2645 25.5171 59.427C23.3792 60.2087 21.1765 60.7194 18.9146 60.9422C16.1061 61.2189 13.3218 61.0741 10.5911 60.309C8.33656 59.6776 6.28395 58.6489 4.51477 57.0983C2.29357 55.1522 0.915277 52.6936 0.353956 49.8152C-0.676058 44.5321 0.544768 39.795 3.97938 35.6447C5.19095 34.1814 6.57294 32.8963 8.09759 31.7654C8.68855 31.3272 9.31471 30.9484 9.99089 30.6568C10.2113 30.5603 10.4373 30.4563 10.7134 30.5974Z" fill="#0053A8"/>
<path d="M91.9698 0.033426C91.979 0.115133 92.0068 0.198697 91.992 0.274833C91.7808 1.29803 91.6104 2.33236 91.3399 3.33884C90.9731 4.70558 90.2747 5.92561 89.4688 7.08065C88.3221 8.72407 87.0883 10.2969 85.7471 11.7862C83.9742 13.7528 82.1179 15.6376 80.1876 17.45C79.2632 18.3172 78.348 19.1956 77.531 20.1668C77.1735 20.592 76.8382 21.0377 76.5288 21.4982C76.0657 22.1871 75.8971 22.9411 76.0156 23.7823C76.2194 25.2177 76.5918 26.6142 76.9401 28.0162C77.2772 29.3755 77.6199 30.7329 77.9571 32.0922C78.2628 33.3253 78.235 34.5713 78.0201 35.8043C77.8145 36.9854 77.5403 38.1571 77.255 39.3215C77.1235 39.8581 76.9178 40.3818 76.6937 40.8887C76.112 42.1998 75.2079 43.2564 74.0482 44.0902C73.4295 44.5358 72.7478 44.8404 71.9938 45.0019C71.0823 45.1969 70.2302 45.0762 69.4187 44.6305C69.0871 44.4486 68.7611 44.2573 68.4258 44.0865C68.2498 43.9973 68.0627 43.9193 67.87 43.871C67.4087 43.7541 67.2087 43.8209 66.9697 44.2183C66.7752 44.5396 66.6195 44.8868 66.4639 45.2303C66.2268 45.7577 66.0286 46.3037 65.7729 46.8199C65.5377 47.2972 65.2802 47.7707 64.9726 48.2034C64.176 49.3231 63.1386 50.1309 61.7881 50.4819C60.0338 50.9387 58.4924 50.5469 57.1882 49.2767C56.4769 48.584 55.9656 47.754 55.5469 46.8626C55.0615 45.8302 54.7503 44.7383 54.4854 43.6371C54.2149 42.5136 53.987 41.379 53.7407 40.2499C53.1886 37.7022 52.3827 35.2305 51.4713 32.7905C51.1452 31.9158 50.8081 31.0449 50.4524 30.1814C50.3338 29.8936 50.3301 29.6429 50.4394 29.3514C50.7729 28.4563 51.0786 27.5501 51.4009 26.6495C51.4509 26.5102 51.5269 26.382 51.5917 26.2465C51.8492 26.3412 51.8622 26.5677 51.9363 26.7404C52.6699 28.4359 53.2775 30.1777 53.7962 31.9511C54.352 33.8527 54.7429 35.7932 55.1282 37.7337C55.4561 39.392 55.8637 41.0317 56.3398 42.6547C56.5417 43.3399 56.8177 43.9936 57.1753 44.612C58.0256 46.079 59.3261 46.6676 60.9785 46.5507C61.3806 46.5228 61.7548 46.3742 62.1179 46.2015C63.0182 45.7726 63.7518 45.1375 64.3817 44.3724C64.9652 43.6631 65.4098 42.8701 65.7822 42.0326C65.9989 41.5443 66.2101 41.054 66.4491 40.5786C66.5973 40.2815 66.7696 39.99 66.9715 39.7281C67.3291 39.262 67.6551 39.2267 68.0997 39.5981C68.4239 39.8674 68.7111 40.1812 69.0316 40.4561C69.2668 40.6566 69.5151 40.8516 69.7818 41.002C70.471 41.3901 71.2101 41.4495 71.9752 41.2806C72.6811 41.1246 73.3183 40.8237 73.8926 40.3892C74.717 39.7671 75.4173 39.028 75.9842 38.1646C76.5936 37.2342 76.8771 36.2277 76.614 35.1173C76.338 33.9492 76.0638 32.7793 75.7581 31.6206C75.4525 30.46 75.1561 29.2956 74.9393 28.1146C74.7652 27.1675 74.7022 26.2149 74.8004 25.2567C74.893 24.3728 75.0153 23.4907 75.1394 22.6105C75.2598 21.7526 75.3932 20.8947 75.5377 20.0405C75.597 19.6914 75.6896 19.346 75.7841 19.0024C76.062 17.9978 76.5362 17.1009 77.2772 16.36C78.172 15.463 79.0631 14.5624 79.9782 13.6859C81.9364 11.8085 83.9093 9.94782 85.7841 7.98314C87.1513 6.55141 88.4759 5.08254 89.6652 3.49483C90.4136 2.49578 91.1028 1.46144 91.6511 0.33797C91.7085 0.22098 91.7864 0.113276 91.853 4.18755e-07C91.8938 0.0129992 91.9327 0.0222841 91.9698 0.033426Z" fill="#0053A8"/>
<path d="M18.9403 22.7257C19.0663 22.9968 19.1663 23.1937 19.2516 23.3961C20.289 25.89 21.0393 28.4675 21.545 31.1192C21.8655 32.8017 22.2453 34.4711 22.7269 36.1164C22.9603 36.9149 23.3049 37.6576 23.8162 38.315C24.2664 38.8963 24.8388 39.2974 25.5761 39.4329C26.1171 39.5313 26.6376 39.4311 27.1508 39.2714C27.814 39.0634 28.4179 38.7347 28.9885 38.3447C29.9092 37.7152 30.7447 36.9836 31.5135 36.1758C32.1471 35.5091 32.6417 34.7459 32.9752 33.8843C33.0234 33.758 33.0715 33.6299 33.2327 33.615C33.3476 33.6039 33.4661 33.745 33.4772 33.9604C33.4921 34.2482 33.4883 34.5379 33.4717 34.8258C33.4124 35.8527 33.1604 36.8443 32.9307 37.8433C32.7381 38.6883 32.5473 39.535 32.4083 40.3911C32.2749 41.2082 32.325 42.0345 32.4769 42.8498C32.488 42.9147 32.5084 42.9797 32.538 43.0373C32.5565 43.0744 32.5991 43.0986 32.6566 43.1524C33.003 42.6065 33.2327 42.0067 33.5291 41.444C33.8274 40.8721 34.1164 40.2964 34.4202 39.7263C34.7147 39.1767 35.013 38.6307 35.3279 38.094C35.654 37.5369 35.9893 36.9854 36.3394 36.445C36.6877 35.9065 37.0619 35.3847 37.4417 34.8313C37.2916 34.6791 37.1582 34.5361 37.0174 34.4005C36.1542 33.5686 35.8114 32.5547 35.9596 31.3718C36.0745 30.4582 36.3487 29.5947 36.7988 28.7869C37.3546 27.7841 38.1845 27.1267 39.2683 26.7758C40.0575 26.5195 40.8744 26.4452 41.6951 26.3951C42.4936 26.3468 43.292 26.3152 44.0905 26.2725C45.1649 26.215 46.2042 26.0126 47.1638 25.4963C47.2175 25.4666 47.2879 25.4685 47.4009 25.4462C47.3898 25.5725 47.4009 25.6802 47.3676 25.7749C46.973 26.8853 46.5692 27.9921 46.0504 29.0543C45.5391 30.1053 44.8815 31.0505 44.0349 31.8546C42.9715 32.8648 41.9267 33.901 40.8133 34.8536C39.1516 36.2742 37.8363 37.9622 36.7136 39.821C35.5947 41.6706 34.6851 43.626 33.8033 45.5962C33.5847 46.0827 33.3809 46.5767 33.1623 47.0632C33.1104 47.1784 33.0271 47.2786 32.9363 47.4216C32.8455 47.3362 32.7566 47.2898 32.7325 47.2211C32.1304 45.5219 31.5117 43.8247 31.4969 41.9881C31.4895 41.1432 31.4876 40.2964 31.6358 39.4589C31.658 39.3289 31.658 39.1971 31.6747 38.9724C31.5228 39.1005 31.4172 39.1655 31.3431 39.2565C30.804 39.9102 30.2279 40.5267 29.5962 41.0893C29.096 41.535 28.5624 41.9343 27.9641 42.237C27.4861 42.4784 26.9859 42.6473 26.4487 42.7123C25.5891 42.8145 24.8222 42.5953 24.1182 42.1107C23.5606 41.7281 23.1123 41.2379 22.7306 40.6845C22.1804 39.8897 21.7895 39.0188 21.5394 38.0903C21.2727 37.1024 20.9966 36.1145 20.8058 35.1117C20.3297 32.6104 19.5554 30.2019 18.6606 27.8268C18.3864 27.0989 18.0993 26.3765 17.8232 25.6616C18.2123 24.2819 18.6106 23.2308 18.9403 22.7257ZM44.0979 29.0301C43.9978 28.9633 43.9811 28.9429 43.9645 28.9429C42.5454 28.9057 41.1227 28.8649 39.7147 29.0896C39.1701 29.1768 38.6347 29.331 38.1049 29.4925C37.7677 29.5965 37.4491 29.7692 37.1971 30.0329C36.834 30.4136 36.7711 30.7924 37.0267 31.2474C37.1342 31.4386 37.2731 31.6206 37.4287 31.7748C37.714 32.0552 38.0197 32.3114 38.3216 32.5732C38.4383 32.6754 38.5754 32.7571 38.6829 32.8648C38.7848 32.9669 38.8607 33.0932 38.9589 33.2232C39.3998 32.8407 39.8129 32.4711 40.239 32.1183C40.6484 31.7785 41.0727 31.4554 41.4932 31.1267C41.9304 30.785 42.3768 30.4544 42.8085 30.1072C43.2327 29.7636 43.7014 29.4721 44.0979 29.0301Z" fill="#0053A8"/>
<path d="M40.9135 58.6841C40.5208 59.7333 40.0669 60.7435 39.4333 61.6627C39.2314 61.9543 39.1091 62.0007 38.8164 61.8837C37.7105 61.438 36.7323 60.7974 35.9191 59.9153C35.8431 59.8336 35.7783 59.7426 35.7171 59.6498C35.656 59.5569 35.6078 59.4585 35.5615 59.3749C35.7283 58.478 36.5341 56.7343 37.1121 56.0305C37.1955 56.0844 37.2937 56.1308 37.3678 56.1995C38.3811 57.1466 39.4778 57.9692 40.7635 58.5152C40.7987 58.5337 40.8227 58.5801 40.9135 58.6841Z" fill="#0053A8"/>
<path d="M63.8595 35.5648C62.798 35.3531 61.2492 34.2983 60.6416 33.3754C60.7713 32.6419 61.4104 31.2343 61.9199 30.59C62.0014 30.642 62.0977 30.6865 62.1699 30.7552C62.9962 31.5407 63.928 32.1703 64.9488 32.6716C64.9858 32.6902 65.0155 32.7255 65.0488 32.7533C64.9858 33.5574 64.3615 35.0337 63.8595 35.5648Z" fill="#0053A8"/>
<path d="M66.6393 29.7023C67.5026 30.7032 68.579 31.3476 69.7368 31.8323C69.4645 32.8555 68.8883 34.0625 68.4141 34.5955C68.2677 34.5583 68.0899 34.5379 67.9361 34.4673C67.2081 34.1331 66.5282 33.7134 65.928 33.1767C65.8298 33.0876 65.7427 32.9855 65.6482 32.8926C65.3037 32.5602 65.2296 32.1962 65.4593 31.7561C65.7149 31.264 65.9298 30.7515 66.1762 30.2539C66.2707 30.0626 66.367 29.8565 66.6393 29.7023Z" fill="#0053A8"/>
<path d="M10.1784 27.8119C9.93575 28.5491 9.60044 29.2455 9.18732 29.9028C9.02244 30.1665 8.89277 30.2185 8.63526 30.109C7.85349 29.7729 7.15323 29.3179 6.57338 28.6847C6.33255 28.4228 6.28994 28.1591 6.4437 27.836C6.67342 27.3569 6.87349 26.863 7.10136 26.382C7.18472 26.2075 7.31069 26.0515 7.42185 25.8788C7.88869 26.2539 8.3018 26.6216 8.75382 26.9373C9.20399 27.2529 9.69121 27.5148 10.1784 27.8119Z" fill="#0053A8"/>
<path d="M44.6259 32.3931C45.2725 32.9799 45.8986 33.4645 46.6656 33.8025C46.4229 34.4673 46.1691 35.0671 45.7319 35.6149C44.952 35.2955 44.2777 34.9074 43.7979 34.1869C43.9868 33.576 44.2258 32.9929 44.6259 32.3931Z" fill="#0053A8"/>
</svg>
