<svg width="76" height="75" viewBox="0 0 76 75" fill="none" xmlns="http://www.w3.org/2000/svg">
<path d="M14.5894 14.3064C15.9527 14.3064 17.2247 14.3064 18.6418 14.3064C19.4954 17.3606 20.4277 20.3271 21.1197 23.3437C21.5009 25.0043 22.2591 25.505 23.929 25.5342C37.3914 25.7679 50.8496 26.0975 64.312 26.3937C65.0537 26.4104 65.7954 26.3979 66.794 26.3979C64.341 32.3852 61.9875 38.1306 59.6298 43.8759C58.6602 46.2416 57.7528 48.6408 56.6589 50.9522C56.3854 51.5322 55.4945 52.1747 54.8813 52.1789C44.8746 52.254 34.868 52.2332 24.5215 52.2332C20.8338 41.602 16.9761 30.4701 13.077 19.2298C10.3589 19.8139 7.80644 20.3396 5.26645 20.9238C3.98609 21.2158 3.06208 21.0448 2.41983 19.6929C1.80244 18.3995 0.924011 17.2312 0 15.7542C2.39911 15.5456 4.54962 15.2368 6.70426 15.2076C8.15036 15.1868 9.09923 14.6861 10.0274 13.5846C18.7123 3.24549 29.9164 -1.10628 43.1509 0.237219C58.5939 1.80603 71.4389 13.6347 75.0189 29.0682C79.9083 50.1511 66.0109 70.9754 44.7089 74.4969C24.0036 77.9182 4.58276 63.5194 1.73615 42.5992C1.00688 37.2335 1.46682 31.9305 2.95849 26.7275C3.94051 23.3062 4.28443 23.0767 8.33267 22.7972C3.73748 33.3157 3.81206 43.7049 9.26497 53.7894C13.4251 61.4791 19.7564 66.753 28.0104 69.5818C44.1702 75.1269 62.1739 67.2829 69.2428 51.6532C76.4775 35.6605 70.4859 16.8516 55.4158 8.11463C40.7767 -0.371946 23.0216 4.13003 14.5894 14.3064ZM34.6525 35.9985C38.8043 35.9985 42.7241 35.9985 46.7724 35.9985C47.0707 34.3922 47.3566 32.8526 47.6964 31.0251C43.0597 31.242 38.5889 31.4506 34.002 31.6634C34.2464 33.2906 34.4412 34.5716 34.6525 35.9985ZM35.7547 43.1124C39.1275 42.9538 42.3429 42.7995 45.7033 42.6409C45.9685 41.0262 46.2213 39.4949 46.5196 37.68C42.4921 37.68 38.7422 37.68 34.8472 37.68C35.1456 39.4616 35.4356 41.2098 35.7547 43.1124ZM48.148 35.9234C51.4836 35.9234 54.6783 35.9234 57.9061 35.9234C58.3453 34.1293 58.7597 32.4353 59.2362 30.4743C55.5153 30.6788 52.0595 30.8707 48.6411 31.0584C48.4629 32.8442 48.3096 34.3337 48.148 35.9234ZM33.629 37.3712C30.6374 37.3712 27.9234 37.3712 25.0602 37.3712C25.487 39.0151 25.8475 40.6173 26.3447 42.1736C26.4731 42.5783 27.0201 43.1166 27.393 43.1332C29.4855 43.225 31.5863 43.1791 33.629 43.1791C33.629 41.093 33.629 39.3781 33.629 37.3712ZM47.684 42.6284C49.3952 42.6284 50.9698 42.7077 52.5319 42.6117C57.1395 42.3363 55.8757 43.1458 57.152 38.8441C57.2017 38.673 57.1105 38.456 57.0567 38.0513C55.3412 38.0513 53.6299 38.0972 51.9187 38.043C47.6632 37.9011 47.6632 37.8802 47.684 42.6284ZM33.4053 32.1307C30.0656 32.1307 26.8958 32.1307 23.5768 32.1307C23.929 33.3282 24.1072 34.2169 24.4594 35.0263C24.6665 35.502 25.1348 36.1988 25.5077 36.2155C28.1513 36.3198 30.799 36.2697 33.4011 36.2697C33.4053 34.534 33.4053 33.2573 33.4053 32.1307ZM54.5995 48.8619C54.9476 47.4016 55.2915 45.9579 55.6727 44.3557C52.7722 44.3557 50.1162 44.3557 47.369 44.3557C47.2033 45.8787 47.0541 47.2764 46.8801 48.8619C49.532 48.8619 51.9269 48.8619 54.5995 48.8619ZM35.8914 44.2848C36.111 45.7994 36.3016 47.122 36.5005 48.5072C39.3678 48.5072 42.0156 48.5072 44.7255 48.5072C44.9368 47.0636 45.1315 45.7451 45.3428 44.2848C42.0984 44.2848 39.1648 44.2848 35.8914 44.2848ZM33.8279 48.4029C33.8279 46.9134 33.8279 45.6408 33.8279 44.3474C31.4495 44.3474 29.241 44.3474 26.9123 44.3474C27.306 45.741 27.6375 46.9092 27.9648 48.0733C29.962 48.186 31.81 48.2903 33.8279 48.4029Z" fill="black"/>
</svg>
