<svg width="36" height="36" viewBox="0 0 36 36" fill="none" xmlns="http://www.w3.org/2000/svg">
<path d="M2 12.5867C2.01351 10.8736 2.57917 9.18827 3.76502 7.73399C4.77869 6.49086 6.10662 5.81366 7.71607 5.69566C8.21109 5.65943 8.70065 5.69592 9.1897 5.77639C9.48551 5.82504 9.71536 5.96323 9.88625 6.2044C10.2402 6.7046 10.6064 7.19652 10.9438 7.70733C11.5843 8.67643 12.1712 9.67735 12.6338 10.7448C12.9125 11.3876 13.1475 12.0446 13.2039 12.7502C13.2501 13.3288 13.1498 13.8673 12.7496 14.3186C12.553 14.5402 12.2941 14.6729 12.0403 14.8119C11.5741 15.067 11.1041 15.3152 10.6389 15.5721C10.488 15.6554 10.3431 15.7515 10.2031 15.8519C10.0423 15.9673 10.0366 15.9818 10.1462 16.1393C10.3971 16.4996 10.6366 16.8706 10.9176 17.2065C11.9993 18.4993 13.1781 19.7031 14.3697 20.894C15.6989 22.2225 17.0445 23.5347 18.4969 24.7313C18.7584 24.9468 19.0576 25.1168 19.335 25.314C19.4427 25.3906 19.5181 25.3663 19.5791 25.2649C19.7923 24.9106 20.0076 24.5576 20.2138 24.1992C20.418 23.8442 20.6091 23.4817 20.8109 23.1254C21.1202 22.5799 21.6103 22.3201 22.2199 22.2608C22.8237 22.2021 23.3987 22.3415 23.9628 22.5341C25.0786 22.9147 26.112 23.4667 27.1017 24.0952C27.8414 24.5651 28.5538 25.0778 29.2756 25.5759C29.5215 25.7457 29.6581 25.9796 29.7049 26.2823C29.9197 27.6766 29.7332 28.9984 29.0034 30.2221C28.4569 31.1382 27.6819 31.8205 26.7602 32.344C25.7632 32.9105 24.697 33.2709 23.5512 33.3796C22.4588 33.4831 21.3828 33.3757 20.3193 33.1183C18.5571 32.6918 16.9412 31.9269 15.3992 30.9953C13.456 29.8215 11.6884 28.4185 10.0247 26.8819C9.66757 26.5522 9.29982 26.2314 8.96842 25.8774C8.44691 25.3202 7.94566 24.7437 7.44701 24.1659C6.37906 22.9282 5.40227 21.6227 4.54417 20.2315C3.66659 18.8091 2.92718 17.3227 2.4571 15.7132C2.17349 14.7441 2.00779 13.7569 2 12.5867ZM3.56193 12.5577C3.57102 13.7067 3.74659 14.631 4.03331 15.5362C4.45613 16.8714 5.07763 18.1148 5.80639 19.3072C6.8746 21.0555 8.14512 22.65 9.52006 24.1661C10.5005 25.2473 11.5775 26.2249 12.7013 27.1526C14.305 28.4765 16.0005 29.665 17.8803 30.5743C19.1599 31.1933 20.486 31.6629 21.9113 31.8185C23.4164 31.9828 24.8251 31.7031 26.1174 30.911C27.6349 29.9809 28.3543 28.6346 28.204 26.8485C28.1954 26.7479 28.1624 26.6765 28.0762 26.6136C27.2942 26.0414 26.4828 25.5146 25.6411 25.0346C24.9422 24.6361 24.228 24.2678 23.4624 24.0096C23.1258 23.896 22.7848 23.8031 22.424 23.8046C22.2742 23.8051 22.176 23.8582 22.104 23.9951C21.8934 24.3959 21.6719 24.7908 21.4545 25.1883C21.2309 25.5971 21.008 26.0068 20.6951 26.3579C20.1725 26.9445 19.4983 27.1001 18.7833 26.7717C18.5023 26.6426 18.2226 26.4899 17.9826 26.2976C17.3458 25.7876 16.709 25.2734 16.1124 24.7181C15.0595 23.7384 14.0264 22.7369 13.0031 21.7264C11.8933 20.6308 10.8199 19.4997 9.80548 18.3146C9.39539 17.8353 8.99933 17.3457 8.7126 16.778C8.35757 16.0749 8.43263 15.4073 8.96504 14.8747C9.15827 14.6814 9.38345 14.5088 9.61979 14.3712C10.2205 14.0211 10.8329 13.6904 11.4471 13.364C11.6014 13.2823 11.6557 13.172 11.6531 13.0139C11.6523 12.9666 11.65 12.9192 11.6456 12.8719C11.5923 12.3238 11.3999 11.8156 11.1786 11.3187C10.5903 9.99693 9.81483 8.78433 8.99024 7.59943C8.8222 7.358 8.64456 7.24621 8.34251 7.23715C7.08652 7.20015 5.99806 7.58106 5.1519 8.51599C4.06707 9.71461 3.58141 11.1516 3.56193 12.5577Z" fill="#1F2226"/>
<path d="M17.9962 2.00112C21.3452 2.06426 24.3766 3.06803 27.0363 5.10403C29.7498 7.18143 31.5982 9.85815 32.4981 13.1621C32.8942 14.6161 33.0487 16.0992 32.9864 17.6049C32.9677 18.0562 32.614 18.3986 32.1722 18.3885C31.7135 18.3779 31.3798 18.019 31.3741 17.5576C31.3666 16.9632 31.3699 16.3667 31.3188 15.7754C31.1725 14.0851 30.6993 12.4834 29.9049 10.9833C28.4068 8.1544 26.1964 6.06976 23.2616 4.7653C21.3862 3.93154 19.4129 3.57547 17.3619 3.63525C17.2243 3.63913 17.0835 3.65052 16.9487 3.62956C16.5501 3.56745 16.2797 3.21527 16.2914 2.79269C16.302 2.39988 16.595 2.0715 16.9848 2.02699C17.1521 2.0081 17.3217 2.00603 17.4902 2.00215C17.6588 1.99801 17.8276 2.00112 17.9962 2.00112Z" fill="#1F2226"/>
<path d="M18.0499 6.19462C21.16 6.29735 23.7785 7.47941 25.8707 9.77858C27.2405 11.2836 28.0986 13.0484 28.451 15.0515C28.5827 15.8007 28.6424 16.5565 28.5996 17.3178C28.5744 17.7647 28.2178 18.1016 27.7864 18.09C27.3176 18.0773 26.9662 17.721 26.9841 17.2534C27.0317 16.0092 26.8483 14.8041 26.3886 13.6443C25.8513 12.2886 25.0228 11.1348 23.94 10.1595C22.6581 9.00511 21.1712 8.25649 19.4721 7.93407C18.7935 7.80546 18.1076 7.77104 17.4175 7.79407C17.0783 7.80546 16.8212 7.64864 16.6742 7.34692C16.5246 7.04002 16.5675 6.74062 16.7851 6.4759C16.9355 6.29295 17.1391 6.20134 17.3757 6.19539C17.5998 6.19022 17.8248 6.19462 18.0499 6.19462Z" fill="#1F2226"/>
<path d="M24.6045 17.0101C24.5951 17.1646 24.6011 17.3219 24.5733 17.4731C24.4928 17.9119 24.1227 18.1686 23.6586 18.1221C23.2571 18.0817 22.9446 17.7318 22.9597 17.3108C22.9849 16.608 22.9 15.9212 22.6358 15.2696C21.9494 13.5755 20.7054 12.5179 18.9136 12.124C18.5497 12.0441 18.168 12.0314 17.7932 12.0179C17.3023 12.0001 16.9574 11.6738 16.9551 11.1881C16.953 10.7344 17.3005 10.3923 17.7737 10.3828C21.0407 10.316 23.8729 12.5999 24.4801 15.8022C24.5551 16.1984 24.577 16.6049 24.6237 17.0065C24.6172 17.0078 24.611 17.0088 24.6045 17.0101Z" fill="#1F2226"/>
</svg>
