<svg width="36" height="36" viewBox="0 0 36 36" fill="none" xmlns="http://www.w3.org/2000/svg">
<path d="M18.2528 34C15.4078 27.6984 12.5512 21.546 9.84548 15.3286C7.50723 9.95317 10.2071 4.01321 15.6263 2.45932C19.3358 1.39534 22.7068 2.15314 25.3429 4.99108C28.0351 7.88834 28.7507 11.3501 27.1706 15.0033C25.4899 18.888 23.5559 22.6655 21.7495 26.4966C20.6761 28.772 19.6395 31.0645 18.5854 33.3475C18.4964 33.5427 18.392 33.7283 18.2528 34ZM18.2392 31.3745C19.1153 29.5393 19.8986 27.9032 20.678 26.2651C22.5405 22.3498 24.4939 18.4746 26.2326 14.5076C27.7547 11.0344 26.544 7.05016 23.5191 4.73848C20.6626 2.55501 16.5121 2.52439 13.5086 4.66576C10.5205 6.79756 9.12989 10.7722 10.5669 14.1938C12.969 19.9099 15.6128 25.5283 18.2392 31.3745Z" fill="#1F2226"/>
<path d="M23.2969 11.7672C23.2872 14.4118 21.1095 16.5609 18.4444 16.557C15.7909 16.5532 13.6074 14.3812 13.6016 11.7442C13.5958 9.08424 15.7368 6.94287 18.4193 6.92374C21.1482 6.90269 23.3066 9.04789 23.2969 11.7672ZM18.4792 15.4605C20.5854 15.4567 22.3009 13.7459 22.2699 11.6849C22.239 9.65834 20.5351 7.99347 18.485 7.98964C16.3731 7.98581 14.644 9.66982 14.6479 11.7289C14.6537 13.8129 16.346 15.4643 18.4792 15.4605Z" fill="#1F2226"/>
</svg>
