<svg width="112" height="58" viewBox="0 0 112 58" fill="none" xmlns="http://www.w3.org/2000/svg">
<path d="M30.6984 50.7973C27.5697 50.7973 24.4726 50.7957 21.3755 50.7973C18.9027 50.799 18.7649 50.6637 18.7649 48.1871C18.7649 42.2472 18.7649 36.3089 18.7649 30.369C18.7649 30.0456 18.7649 29.7205 18.7649 29.2932C18.3531 29.2932 18.0309 29.2932 17.7087 29.2932C12.4228 29.2932 7.13695 29.2899 1.85106 29.2981C1.11041 29.2998 0.46939 29.143 0.128954 28.4154C-0.214802 27.6812 0.153864 26.7918 0.936036 26.5295C1.26651 26.4189 1.64016 26.3975 1.99388 26.3975C10.4068 26.3909 18.8197 26.3925 27.2343 26.3925C27.4003 26.3925 27.5664 26.3843 27.7325 26.3958C28.6292 26.4618 29.2453 27.0509 29.2503 27.8363C29.2553 28.6233 28.6475 29.2519 27.7458 29.2816C26.5567 29.3212 25.366 29.2932 24.1753 29.2932C23.3533 29.2932 22.5296 29.2932 21.6644 29.2932C21.6644 35.5317 21.6644 41.6829 21.6644 47.9016C24.6602 47.9016 27.6594 47.9016 30.6652 47.9016C32.6696 42.894 35.2769 40.7407 39.3123 40.7737C43.3892 40.8067 45.9549 42.9368 47.9095 47.9346C55.2197 47.9346 62.5416 47.9346 69.9199 47.9346C69.9199 32.9281 69.9199 17.9595 69.9199 2.9381C53.8348 2.9381 37.7745 2.9381 21.6677 2.9381C21.6677 4.53198 21.6677 6.0846 21.6677 7.75768C22.0049 7.75768 22.3237 7.75768 22.6442 7.75768C28.0131 7.75768 33.382 7.75603 38.751 7.75933C39.8686 7.75933 40.488 8.20153 40.571 9.02816C40.669 10.0165 40.0263 10.6484 38.8572 10.655C36.3945 10.6682 33.9317 10.66 31.4673 10.66C25.4059 10.66 19.3461 10.6583 13.2847 10.6616C12.6254 10.6616 12.0027 10.594 11.6041 9.9835C10.9465 8.97701 11.6407 7.79563 12.9459 7.76758C14.5501 7.73128 16.156 7.75768 17.7619 7.75768C18.0608 7.75768 18.3597 7.75768 18.7666 7.75768C18.7666 6.53175 18.7666 5.38501 18.7666 4.23828C18.7666 3.35884 18.7566 2.47775 18.7715 1.59832C18.7898 0.55553 19.3013 0.0489866 20.3558 0.00608723C20.6597 -0.00546261 20.9653 0.00443726 21.2692 0.00443726C37.7911 0.00773721 54.313 0.00938719 70.8349 0.0126871C72.4259 0.0126871 72.8842 0.446631 72.8842 2.00256C72.8875 17.6212 72.8859 33.2399 72.8842 48.857C72.8842 50.3733 72.4391 50.799 70.8897 50.799C63.4998 50.799 56.1115 50.8056 48.7216 50.7808C48.049 50.7792 47.7966 50.9475 47.6255 51.6306C46.6856 55.3645 43.2082 57.9698 39.2409 57.9995C35.4728 58.0275 31.9638 55.3661 30.9459 51.7065C30.8661 51.4194 30.7898 51.1323 30.6984 50.7973ZM39.2674 55.1104C42.4758 55.1186 45.0382 52.6123 45.0532 49.451C45.0681 46.2187 42.5456 43.676 39.3123 43.6661C36.069 43.6562 33.5182 46.1857 33.5265 49.4048C33.5348 52.5859 36.0673 55.1021 39.2674 55.1104Z" fill="black"/>
<path d="M74.5915 9.07821C74.9618 9.07821 75.2608 9.07821 75.558 9.07821C81.2026 9.07821 86.8472 9.09141 92.4918 9.06501C93.8186 9.05841 94.7852 9.5402 95.6055 10.5912C100.642 17.0377 105.701 23.4677 110.796 29.8663C111.633 30.9173 112.018 31.9799 112 33.3279C111.938 38.1112 111.976 42.8945 111.976 47.6778C111.976 49.6808 110.874 50.788 108.861 50.7979C107.478 50.8045 106.093 50.7764 104.711 50.821C104.472 50.8292 104.077 51.08 104.032 51.2797C103.223 54.8568 100.041 57.9786 95.5623 57.9868C91.3891 57.9951 87.9847 55.1489 87.088 51.1906C87.0631 51.085 87.0299 50.9794 86.98 50.8028C82.8765 50.8028 78.7631 50.8028 74.5898 50.8028C74.5915 36.8902 74.5915 23.0502 74.5915 9.07821ZM77.4761 12.0053C77.4761 24.0452 77.4761 35.986 77.4761 47.9335C80.6928 47.9335 83.8397 47.9335 86.9784 47.9335C88.0246 43.3152 91.5867 40.8089 95.3083 40.8106C100.104 40.8122 102.961 43.4357 104.173 47.9137C105.83 47.9137 107.451 47.9137 109.087 47.9137C109.107 47.757 109.133 47.6514 109.133 47.5458C109.135 42.6519 109.14 37.7581 109.118 32.8643C109.117 32.5689 108.966 32.2274 108.778 31.9898C103.676 25.4889 98.5665 18.9962 93.43 12.5217C93.2025 12.2346 92.7176 11.9937 92.3506 11.9904C87.6194 11.9558 82.8882 11.9673 78.1569 11.969C77.9427 11.9706 77.7268 11.9921 77.4761 12.0053ZM95.5192 55.1093C98.7143 55.1274 101.315 52.6112 101.343 49.4779C101.371 46.2588 98.8405 43.6898 95.6188 43.6667C92.3905 43.6436 89.7882 46.1895 89.7849 49.3789C89.7816 52.5353 92.339 55.0911 95.5192 55.1093Z" fill="black"/>
<path d="M18.395 16.8279C14.1338 16.8279 9.87419 16.8444 5.61293 16.8032C5.11307 16.7982 4.48202 16.6052 4.14823 16.2686C3.39429 15.5063 3.95725 14.1781 5.03668 14.0065C5.2808 13.9685 5.53322 13.9883 5.78232 13.9883C14.2201 13.9883 22.6596 13.9883 31.0974 13.9883C31.2635 13.9883 31.4296 13.9817 31.5956 13.99C32.4559 14.0362 33.0902 14.6714 33.0637 15.4584C33.0388 16.2339 32.4492 16.8098 31.5907 16.8197C29.7922 16.8411 27.9937 16.8263 26.1952 16.8263C23.5962 16.8279 20.9956 16.8279 18.395 16.8279Z" fill="black"/>
<path d="M23.0384 23.06C18.7223 23.06 14.4079 23.0633 10.0919 23.0567C8.98422 23.055 8.36645 22.4247 8.47273 21.448C8.56075 20.6362 9.10212 20.2237 10.1334 20.222C13.8682 20.2171 17.6014 20.222 21.3362 20.222C26.2318 20.222 31.1291 20.255 36.0248 20.194C37.1391 20.1808 38.0707 21.2137 37.5094 22.2828C37.1739 22.923 36.5877 23.0666 35.9002 23.0649C31.6124 23.0534 27.3262 23.06 23.0384 23.06Z" fill="black"/>
<path d="M92.5311 32.9697C89.5983 32.9697 86.6639 32.9747 83.7312 32.9681C82.0091 32.9648 80.9197 31.9022 80.9164 30.206C80.9081 25.5597 80.9081 20.9134 80.9164 16.267C80.9197 14.5741 82.0157 13.5083 83.7362 13.5017C85.895 13.4951 88.0539 13.5149 90.2111 13.4934C91.2905 13.4819 92.1109 13.8795 92.7702 14.7408C96.2891 19.331 99.823 23.9097 103.364 28.4835C104.096 29.4289 104.415 30.4156 103.834 31.5359C103.259 32.643 102.294 32.9961 101.082 32.9813C98.2304 32.9466 95.3807 32.9697 92.5311 32.9697ZM83.8176 30.0922C89.5452 30.0922 95.1698 30.0922 100.834 30.0922C100.798 29.9635 100.796 29.8777 100.753 29.8216C97.3835 25.4359 94.0157 21.047 90.6213 16.6795C90.4585 16.4716 90.0633 16.3561 89.7727 16.3479C88.4741 16.3132 87.1738 16.333 85.8751 16.333C85.1976 16.333 84.52 16.333 83.8176 16.333C83.8176 20.9926 83.8176 25.5118 83.8176 30.0922Z" fill="black"/>
</svg>
