<svg width="17" height="16" viewBox="0 0 17 16" fill="none" xmlns="http://www.w3.org/2000/svg">
<path d="M8.0703 1.70013C8.26413 1.37433 8.73587 1.37433 8.9297 1.70013L10.8557 4.93735C11.0751 5.30605 11.4418 5.56317 11.8632 5.64372L15.6201 6.36187C16.0109 6.43657 16.1622 6.91564 15.8851 7.20117L13.353 9.81059C13.0372 10.136 12.8856 10.5868 12.9405 11.0368L13.3762 14.6086C13.423 14.9922 13.0355 15.2816 12.681 15.1279L9.09671 13.5738C8.71603 13.4087 8.28397 13.4087 7.90329 13.5738L4.31902 15.1279C3.96447 15.2816 3.57699 14.9922 3.62379 14.6086L4.05952 11.0368C4.11443 10.5868 3.9628 10.136 3.64704 9.8106L1.11491 7.20117C0.837827 6.91564 0.989058 6.43657 1.37986 6.36187L5.13683 5.64372C5.55821 5.56317 5.92494 5.30605 6.1443 4.93735L8.0703 1.70013Z" stroke="#E8BA06"/>
</svg>
