<svg width="12" height="12" viewBox="0 0 12 12" fill="none" xmlns="http://www.w3.org/2000/svg">
<path d="M5.37631 1.12709C5.66481 0.183671 7.00037 0.183672 7.28887 1.12709L7.85106 2.96546C7.97963 3.38588 8.3677 3.67302 8.80734 3.67302H10.7496C11.7036 3.67302 12.1158 4.88165 11.3607 5.4646L9.68711 6.75651C9.35768 7.01081 9.22019 7.44255 9.34189 7.84053L9.9562 9.84935C10.2412 10.7814 9.16041 11.529 8.38885 10.9334L6.94365 9.81774C6.58367 9.53985 6.08151 9.53985 5.72153 9.81774L4.27633 10.9334C3.50478 11.529 2.42394 10.7814 2.70898 9.84935L3.32329 7.84053C3.44499 7.44255 3.3075 7.01081 2.97807 6.75651L1.30451 5.4646C0.54935 4.88165 0.961583 3.67302 1.91557 3.67302H3.85784C4.29748 3.67302 4.68555 3.38588 4.81412 2.96545L5.37631 1.12709Z" fill="#E28264"/>
</svg>
