<svg width="80" height="80" viewBox="0 0 80 80" fill="none" xmlns="http://www.w3.org/2000/svg">
<path d="M1 36.1544C2.06393 33.8031 3.98835 33.0227 6.40972 33.2861C7.7338 33.4296 8.33748 32.986 8.73103 31.6486C9.23798 29.9109 10.1252 28.2867 10.9856 26.2889C10.3853 25.7686 9.57818 25.1649 8.88779 24.4512C7.12346 22.6235 7.09344 20.5089 8.78773 18.6646C9.72826 17.644 10.7088 16.6534 11.7227 15.7062C13.6505 13.9085 15.8817 13.7685 17.5827 15.7963C19.2336 17.7607 20.5977 17.6607 22.8857 16.8669C25.5705 15.9297 26.8112 14.8958 26.5244 11.8607C26.2909 9.38265 28.0886 7.93183 30.6267 7.83177C31.9575 7.77841 33.2949 7.77507 34.629 7.83177C37.2204 7.94183 38.718 9.48604 38.7313 12.0808C38.7513 16.0264 38.728 19.9753 38.718 23.9209C38.718 24.0776 38.6379 24.2377 38.5846 24.4211C30.6634 22.7035 23.376 23.4006 18.4365 30.7314C14.7611 36.1844 14.641 42.1078 18.1864 47.6743C23.0691 55.3419 30.47 56.1657 38.7046 54.4047C38.7046 58.9006 38.7747 63.3431 38.6713 67.7756C38.6279 69.6433 37.0303 70.9808 34.9225 71.1275C33.4283 71.2309 31.9175 71.2342 30.4233 71.1342C27.9185 70.9707 26.2676 69.4499 26.5177 66.8951C26.8012 63.9568 25.6206 62.9729 22.9957 61.9957C20.5811 61.0985 19.237 61.2319 17.5927 63.163C15.8384 65.2242 13.5638 65.0808 11.6127 63.1964C10.6921 62.3092 9.7983 61.3953 8.9178 60.4648C7.05342 58.497 7.06676 56.4025 8.9745 54.4347C9.63154 53.7577 10.362 53.1574 10.989 52.5837C10.0818 50.3591 9.28468 48.3113 8.3875 46.3102C8.24075 45.9866 7.65709 45.7298 7.25019 45.6831C6.37303 45.5797 5.47586 45.6498 4.58869 45.6164C2.73431 45.5431 1.82046 44.2423 1 42.8282C1 40.6036 1 38.379 1 36.1544Z" fill="#86B863"/>
<path d="M79.3773 14.4689C78.737 16.3733 77.7131 17.9275 75.812 18.848C75.4451 19.0248 75.215 19.8219 75.2083 20.3388C75.1583 24.0076 75.1916 27.6763 75.175 31.345C75.165 33.6297 74.6113 34.1566 72.29 34.1566C65.9031 34.16 59.5195 34.1566 52.9891 34.1566C52.739 32.8726 52.5055 31.6552 52.2354 30.2778C58.6556 30.2778 64.8658 30.2778 71.3428 30.2778C71.3428 29.0738 71.3428 27.9898 71.3428 26.9059C71.3428 25.1816 71.2861 23.4573 71.3595 21.7363C71.4329 20.042 71.3428 18.6579 69.6619 17.4939C67.8708 16.2499 67.514 13.4716 68.3344 11.3938C69.1916 9.23256 71.1961 7.78174 73.464 7.78508C75.902 7.78841 77.7197 8.86569 78.797 11.0903C79.0138 11.5372 79.1806 12.0041 79.374 12.4611C79.3773 13.1348 79.3773 13.8018 79.3773 14.4689Z" fill="#86B863"/>
<path d="M79.3773 45.8299C78.7603 48.2613 77.6497 50.2357 74.9715 50.9094C72.5401 51.5231 70.0187 50.706 68.8014 48.4914C68.1944 47.3841 67.4773 47.2307 66.4167 47.2374C62.1376 47.2707 57.8585 47.2507 53.5794 47.2507C52.9791 47.2507 52.3788 47.2507 51.625 47.2507C51.9185 46.1 52.0319 45.0828 52.4588 44.2223C52.6656 43.8087 53.466 43.4852 54.003 43.4786C58.2254 43.4185 62.4478 43.4285 66.6735 43.4586C67.5707 43.4652 68.1643 43.3118 68.6713 42.4146C69.8586 40.3201 72.1833 39.2528 74.2745 39.6231C76.9159 40.0866 78.4835 41.5908 79.1072 44.239C79.1806 44.5492 79.2873 44.856 79.3773 45.1628C79.3773 45.3863 79.3773 45.6098 79.3773 45.8299Z" fill="#86B863"/>
<path d="M22.0616 39.513C22.0482 33.5496 26.9576 28.5902 32.9344 28.5301C38.9211 28.4701 44.0039 33.563 43.9406 39.5564C43.8772 45.4931 39.0078 50.4058 33.1411 50.4558C27.0877 50.5025 22.0749 45.5531 22.0616 39.513Z" fill="#86B863"/>
<path d="M59.2962 58.2736C54.23 58.2736 49.4239 58.2736 44.3311 58.2736C45.4684 56.9728 46.3589 55.8689 47.3594 54.8683C47.6496 54.5782 48.2499 54.4914 48.7102 54.4881C52.7125 54.4614 56.7114 54.4581 60.7136 54.4781C62.498 54.4881 63.0783 55.0818 63.1017 56.8895C63.125 58.7805 63.0283 60.6749 63.155 62.556C63.1984 63.1864 63.6119 63.9968 64.1189 64.3603C66.4335 66.0246 67.4374 68.4827 66.657 71.0308C65.9433 73.3721 63.7687 74.973 61.2673 74.9997C58.7092 75.0264 56.4346 73.3788 55.7408 70.9941C54.9904 68.4193 55.9843 66.0013 58.3256 64.3403C58.8026 64.0035 59.1961 63.2697 59.2561 62.6827C59.3862 61.312 59.2962 59.9245 59.2962 58.2736Z" fill="#86B863"/>
<path d="M46.4785 19.6218C49.7604 19.6218 52.7354 19.6218 55.9605 19.6218C55.9605 18.1776 56.0673 16.8602 55.9005 15.5761C55.8438 15.1526 55.1167 14.7757 54.6431 14.4488C51.9683 12.6045 51.3012 9.01577 53.1656 6.38095C54.9967 3.78949 58.7655 3.21583 61.2735 5.14358C63.8083 7.09802 64.2552 10.7868 62.2541 13.2882C62.1173 13.4616 61.9906 13.7084 61.8072 13.7718C59.3758 14.649 59.7427 16.6801 59.7727 18.5912C59.7894 19.5884 59.7927 20.589 59.7493 21.5862C59.6993 22.7802 58.9956 23.4372 57.8449 23.4606C55.1834 23.5073 52.5219 23.4973 49.8604 23.4506C49.5036 23.4439 49.05 23.1704 48.8198 22.8803C48.0661 21.9331 47.3957 20.9158 46.4785 19.6218Z" fill="#86B863"/>
</svg>
