<svg width="78" height="85" viewBox="0 0 78 85" fill="none" xmlns="http://www.w3.org/2000/svg">
<path d="M0.0287022 41.0396C0.0287022 32.5657 0.0495348 24.0944 5.73388e-05 15.6205C-0.00515082 14.5622 0.343796 14.1498 1.30991 13.7893C13.4918 9.27605 25.6528 4.69801 37.8399 0.192589C38.5326 -0.0641964 39.4831 -0.0641964 40.1758 0.192589C52.3603 4.7006 64.5187 9.27865 76.7032 13.7918C77.685 14.155 78.0027 14.5933 78.0001 15.6334C77.9636 32.6228 77.9662 49.6121 77.9948 66.5989C77.9975 67.5249 77.698 67.9554 76.849 68.3134C64.5474 73.475 52.2665 78.6808 39.9623 83.8295C39.405 84.0629 38.5795 84.0577 38.0196 83.8217C25.6737 78.6548 13.3538 73.4335 1.01304 68.2563C0.164114 67.901 0.0104737 67.403 0.0130777 66.5833C0.0391185 58.0705 0.0287022 49.5551 0.0287022 41.0396ZM39.931 81.7985C40.4102 81.6273 40.6576 81.5521 40.8919 81.4535C52.3186 76.5876 63.7401 71.7061 75.1824 66.8738C76.0131 66.5237 76.0991 66.0386 76.0991 65.2916C76.0835 52.5483 76.0887 39.805 76.0861 27.0617C76.0861 26.7219 76.0548 26.3821 76.034 25.923C75.5548 26.0709 75.1434 26.1746 74.7502 26.3225C63.5214 30.5166 52.2952 34.7238 41.056 38.892C40.181 39.2162 39.9102 39.6468 39.9128 40.5624C39.944 53.866 39.9336 67.1721 39.9336 80.4783C39.931 80.857 39.931 81.2383 39.931 81.7985ZM25.6789 52.9815C22.1269 51.6509 18.8249 50.3617 15.4787 49.1945C14.5282 48.8625 14.2366 48.4164 14.247 47.4411C14.2938 42.1679 14.247 36.8922 14.2912 31.619C14.2991 30.7449 14.0439 30.3143 13.2027 30.0134C9.81744 28.8047 6.45817 27.5234 3.0885 26.2758C2.74997 26.1513 2.3906 26.0761 1.97395 25.9619C1.9453 26.3873 1.91406 26.6441 1.91406 26.9009C1.91145 39.7402 1.92447 52.5794 1.88541 65.4187C1.88281 66.3732 2.33852 66.6689 3.06506 66.9776C14.2678 71.7346 25.4627 76.5046 36.6629 81.2694C37.0743 81.4432 37.5092 81.5625 37.9467 81.7103C38.0014 81.4899 38.0378 81.4043 38.0378 81.3213C38.0431 67.6182 38.0404 53.9126 38.0665 40.2096C38.0691 39.4367 37.7201 39.1851 37.0848 38.9516C33.5849 37.6755 30.1006 36.3578 26.6085 35.0635C26.3507 34.9676 26.0643 34.9468 25.6789 34.869C25.6789 40.91 25.6789 46.8186 25.6789 52.9815ZM28.184 24.1048C31.6605 25.4043 34.7593 26.613 37.8998 27.705C38.5587 27.9332 39.4414 27.9514 40.0899 27.7127C49.5895 24.2189 59.0684 20.6654 68.5498 17.1223C70.3467 16.4505 72.1357 15.7657 74.1851 14.9902C73.5262 14.7152 73.1408 14.5415 72.745 14.3936C69.6253 13.2264 66.5161 12.0281 63.3703 10.9309C62.7532 10.7156 61.9146 10.7052 61.3131 10.9413C54.1415 13.7452 46.9959 16.6139 39.8425 19.4645C36.077 20.9637 32.3037 22.4629 28.184 24.1048ZM39.9336 37.2657C41.7565 36.5861 43.371 35.9869 44.9855 35.3852C54.967 31.6605 64.951 27.941 74.9246 24.193C75.3569 24.0321 76.0157 23.6405 76.0288 23.3344C76.1225 21.07 76.0808 18.8005 76.0808 16.4012C75.4975 16.6035 75.0913 16.7332 74.6955 16.8811C69.7425 18.7252 64.7922 20.5668 59.8418 22.4162C53.5946 24.748 47.3422 27.0721 41.1107 29.448C40.6471 29.6244 40.0091 30.1561 39.9883 30.5478C39.8737 32.7032 39.9336 34.8664 39.9336 37.2657ZM48.5193 5.39574C47.8735 5.12598 47.4933 4.94961 47.1 4.80435C44.8293 3.95618 42.5403 3.1547 40.293 2.24947C39.3789 1.88115 38.5925 1.91227 37.6837 2.25465C27.0695 6.24391 16.4448 10.202 5.82278 14.1705C5.22644 14.3936 4.63792 14.6426 3.77597 14.9876C7.16128 16.2508 10.2523 17.4491 13.385 18.5307C14.0387 18.7564 14.9266 18.746 15.5672 18.4944C22.8639 15.6438 30.1345 12.7232 37.4103 9.82075C41.0221 8.38379 44.6314 6.94423 48.5193 5.39574ZM59.6309 9.48874C56.9539 8.49273 54.6675 7.58749 52.3395 6.80936C51.7171 6.60185 50.8838 6.57591 50.2822 6.81195C39.9727 10.866 29.6866 14.9746 19.3978 19.0728C18.7494 19.3322 18.1114 19.6227 17.2078 20.0092C19.7963 20.9741 22.0853 21.8871 24.4185 22.6574C25.0826 22.8753 25.9679 22.8727 26.6164 22.6263C31.0225 20.9455 35.3921 19.1714 39.7722 17.4232C46.2798 14.8242 52.7847 12.2226 59.6309 9.48874ZM16.3745 21.7574C16.2782 21.926 16.2417 21.9623 16.2417 21.9986C16.2235 30.2443 16.2026 38.4899 16.2052 46.7382C16.2052 46.995 16.3589 47.4074 16.5464 47.48C18.8979 48.3982 21.2676 49.2672 23.7675 50.1983C23.7675 41.727 23.7727 33.4813 23.7519 25.2357C23.7519 24.9503 23.5748 24.4887 23.3613 24.4031C21.0358 23.4849 18.6921 22.6237 16.3745 21.7574ZM1.91406 16.3545C1.91406 18.7512 1.87239 20.9092 1.95572 23.0621C1.96874 23.42 2.44789 23.9232 2.82809 24.0788C4.70563 24.8544 6.61963 25.5391 8.52321 26.2472C10.3669 26.932 12.2158 27.609 14.2678 28.3638C14.2678 25.923 14.286 23.6898 14.2418 21.4617C14.2366 21.2179 13.9032 20.8599 13.6402 20.7588C9.80963 19.2959 5.96861 17.8719 1.91406 16.3545ZM25.6997 25.2409C25.6997 27.6738 25.6711 29.8682 25.7336 32.0625C25.7414 32.3634 26.1502 32.7836 26.4731 32.9185C27.8273 33.4891 29.2178 33.9767 30.5954 34.4903C33.0172 35.3904 35.439 36.2878 38.0405 37.2501C38.0405 34.8405 38.0639 32.6098 38.0092 30.3817C38.0014 30.112 37.6264 29.7203 37.3347 29.6088C33.5458 28.1563 29.736 26.7478 25.6997 25.2409Z" fill="black"/>
</svg>
