<svg width="20" height="20" viewBox="0 0 20 20" fill="none" xmlns="http://www.w3.org/2000/svg">
<rect width="20" height="20" fill="#ECE8DD"/>
<path d="M19.9076 4.10358C19.2746 4.38206 18.5723 4.55274 17.8839 4.66502C18.2073 4.61113 18.6878 4.0407 18.8773 3.80714C19.1684 3.45231 19.4132 3.05257 19.5472 2.61689C19.5657 2.58095 19.5796 2.54053 19.5426 2.51358C19.4964 2.49561 19.4687 2.5046 19.4363 2.52257C18.6694 2.92231 17.8793 3.20977 17.0384 3.41638C16.9691 3.43434 16.9183 3.41638 16.8721 3.37595C16.8028 3.2996 16.7381 3.22773 16.6642 3.16934C16.3084 2.87739 15.9295 2.64833 15.5045 2.47765C14.9408 2.25307 14.3263 2.15875 13.721 2.19917C13.1343 2.23511 12.5521 2.3968 12.03 2.6618C11.5079 2.9268 11.0367 3.2996 10.667 3.74426C10.2836 4.20689 9.9971 4.75036 9.85387 5.32977C9.71526 5.88672 9.7245 6.43918 9.81229 7.00511C9.82615 7.09943 9.81691 7.11291 9.72912 7.09943C6.43486 6.62333 3.70428 5.47799 1.49117 3.02113C1.39414 2.91333 1.34332 2.91333 1.26477 3.03011C0.294513 4.44494 0.765782 6.71316 1.97629 7.82706C2.138 7.97528 2.30433 8.1235 2.48453 8.25825C2.41984 8.27172 1.61129 8.18639 0.895149 7.82706C0.798123 7.76867 0.751921 7.80011 0.74268 7.90791C0.73344 8.06062 0.7473 8.19986 0.770402 8.36605C0.955213 9.79884 1.97629 11.1238 3.37624 11.6404C3.54257 11.7077 3.72738 11.7661 3.90295 11.7976C3.58415 11.8649 3.25611 11.9144 2.34592 11.8425C2.23041 11.82 2.18883 11.8784 2.23041 11.9817C2.91883 13.8008 4.39732 14.3398 5.50619 14.6497C5.65404 14.6767 5.80188 14.6767 5.95435 14.7081C5.94511 14.7216 5.93587 14.7216 5.92663 14.735C5.55701 15.2785 4.28181 15.6872 3.69042 15.8894C2.60927 16.2577 1.43572 16.4194 0.294513 16.3116C0.109702 16.2846 0.0727398 16.2891 0.0219167 16.3116C-0.0289063 16.343 0.0172964 16.3834 0.0727398 16.4283C0.303754 16.5766 0.539388 16.7068 0.779642 16.8371C1.50503 17.2099 2.26275 17.5063 3.05282 17.7219C7.13715 18.8178 11.7343 18.0139 14.7976 15.0539C17.2047 12.7273 18.0502 9.52037 18.0502 6.31342C18.0502 6.18765 18.2027 6.12028 18.2951 6.05291C18.9235 5.59477 19.4271 5.0468 19.8937 4.43596C20 4.29672 20 4.17545 20 4.12604C20 4.11706 20 4.10808 20 4.10808C19.9861 4.05418 19.9861 4.06765 19.9076 4.10358Z" fill="#969696"/>
</svg>
