<svg width="20" height="21" viewBox="0 0 20 21" fill="none" xmlns="http://www.w3.org/2000/svg">
<path d="M19.9076 4.60346C19.2746 4.88194 18.5723 5.05261 17.8839 5.1649C18.2073 5.111 18.6878 4.54058 18.8773 4.30702C19.1684 3.95219 19.4132 3.55244 19.5472 3.11676C19.5657 3.08083 19.5796 3.04041 19.5426 3.01346C19.4964 2.99549 19.4687 3.00448 19.4363 3.02244C18.6694 3.42219 17.8793 3.70965 17.0384 3.91626C16.9691 3.93422 16.9183 3.91625 16.8721 3.87583C16.8028 3.79948 16.7381 3.72761 16.6642 3.66922C16.3084 3.37727 15.9295 3.1482 15.5045 2.97752C14.9408 2.75295 14.3263 2.65863 13.721 2.69905C13.1343 2.73498 12.5521 2.89668 12.03 3.16168C11.5079 3.42668 11.0367 3.79948 10.667 4.24414C10.2836 4.70677 9.9971 5.25024 9.85387 5.82965C9.71526 6.3866 9.7245 6.93906 9.81229 7.50499C9.82615 7.59931 9.81691 7.61279 9.72912 7.59931C6.43486 7.12321 3.70428 5.97787 1.49117 3.521C1.39414 3.41321 1.34332 3.4132 1.26477 3.52998C0.294513 4.94482 0.765782 7.21304 1.97629 8.32694C2.138 8.47516 2.30433 8.62338 2.48453 8.75813C2.41984 8.7716 1.61129 8.68626 0.895149 8.32694C0.798123 8.26855 0.751921 8.29999 0.74268 8.40779C0.73344 8.5605 0.7473 8.69974 0.770402 8.86592C0.955213 10.2987 1.97629 11.6237 3.37624 12.1403C3.54257 12.2076 3.72738 12.266 3.90295 12.2975C3.58415 12.3648 3.25611 12.4142 2.34592 12.3424C2.23041 12.3199 2.18883 12.3783 2.23041 12.4816C2.91883 14.3007 4.39732 14.8397 5.50619 15.1496C5.65404 15.1765 5.80188 15.1765 5.95435 15.208C5.94511 15.2214 5.93587 15.2214 5.92663 15.2349C5.55701 15.7784 4.28181 16.1871 3.69042 16.3892C2.60927 16.7575 1.43572 16.9192 0.294513 16.8114C0.109702 16.7845 0.0727398 16.789 0.0219167 16.8114C-0.0289063 16.8429 0.0172964 16.8833 0.0727398 16.9282C0.303754 17.0764 0.539388 17.2067 0.779642 17.337C1.50503 17.7097 2.26275 18.0062 3.05282 18.2218C7.13715 19.3177 11.7343 18.5137 14.7976 15.5538C17.2047 13.2272 18.0502 10.0202 18.0502 6.81329C18.0502 6.68753 18.2027 6.62016 18.2951 6.55279C18.9235 6.09465 19.4271 5.54668 19.8937 4.93583C20 4.7966 20 4.67533 20 4.62592C20 4.61694 20 4.60795 20 4.60795C19.9861 4.55405 19.9861 4.56753 19.9076 4.60346Z" fill="#969696"/>
</svg>
