<svg width="24" height="24" viewBox="0 0 24 24" fill="none" xmlns="http://www.w3.org/2000/svg">
<circle cx="12" cy="12" r="10.5" fill="white" stroke="#202843"/>
<path d="M5.28027 19.5667C5.27985 19.5667 5.2793 19.5667 5.27862 19.5666C5.27467 19.5665 5.26657 19.5662 5.25492 19.5653C5.23145 19.5637 5.19465 19.5601 5.14919 19.5525C5.0559 19.5369 4.93914 19.5068 4.82845 19.4514C4.71971 19.397 4.62618 19.3233 4.55871 19.2221C4.49334 19.1241 4.43262 18.9709 4.43262 18.7222C4.43262 18.1784 4.719 16.9624 5.79867 15.8827C6.86369 14.8177 8.74362 13.8445 11.9993 13.8445C15.2549 13.8445 17.1349 14.8177 18.1999 15.8827C19.2796 16.9624 19.566 18.1784 19.566 18.7222C19.566 18.9709 19.5052 19.1241 19.4399 19.2221C19.3724 19.3233 19.2789 19.397 19.1701 19.4514C19.0594 19.5068 18.9427 19.5369 18.8494 19.5525C18.8039 19.5601 18.7671 19.5637 18.7437 19.5653C18.732 19.5662 18.7239 19.5665 18.7199 19.5666C18.7193 19.5667 18.7187 19.5667 18.7183 19.5667H5.28027ZM14.4977 10.4651C13.8351 11.1278 12.9364 11.5 11.9993 11.5C11.0622 11.5 10.1635 11.1278 9.50084 10.4651C8.83821 9.8025 8.46595 8.90378 8.46595 7.96668C8.46595 7.02958 8.83821 6.13087 9.50084 5.46824C10.1635 4.80561 11.0622 4.43335 11.9993 4.43335C12.9364 4.43335 13.8351 4.80561 14.4977 5.46824L14.8513 5.11469L14.4977 5.46824C15.1604 6.13087 15.5326 7.02958 15.5326 7.96668C15.5326 8.90378 15.1604 9.8025 14.4977 10.4651Z" stroke="#202843"/>
</svg>
